<?xml version="1.0" encoding="UTF-8" standalone="no"?>
<!-- Created using Krita: https://krita.org -->

<svg
   width="41.660557pt"
   height="113.56334pt"
   viewBox="0 0 41.660557 113.56334"
   version="1.1"
   id="svg5"
   sodipodi:docname="size_indicator.svg"
   inkscape:version="1.2.1 (9c6d41e410, 2022-07-14)"
   xmlns:inkscape="http://www.inkscape.org/namespaces/inkscape"
   xmlns:sodipodi="http://sodipodi.sourceforge.net/DTD/sodipodi-0.dtd"
   xmlns="http://www.w3.org/2000/svg"
   xmlns:svg="http://www.w3.org/2000/svg">
  <sodipodi:namedview
     id="namedview7"
     pagecolor="#505050"
     bordercolor="#eeeeee"
     borderopacity="1"
     inkscape:showpageshadow="0"
     inkscape:pageopacity="0"
     inkscape:pagecheckerboard="0"
     inkscape:deskcolor="#505050"
     inkscape:document-units="pt"
     showgrid="false"
     inkscape:zoom="0.80090498"
     inkscape:cx="81.158192"
     inkscape:cy="184.79096"
     inkscape:window-width="2560"
     inkscape:window-height="1375"
     inkscape:window-x="0"
     inkscape:window-y="0"
     inkscape:window-maximized="1"
     inkscape:current-layer="svg5" />
  <defs
     id="defs2" />
  <path
     id="shape0"
     fill="none"
     stroke="#94959a"
     stroke-width="1"
     stroke-linecap="square"
     stroke-linejoin="bevel"
     d="m 23.164624,0.51443258 c 1.7509,-0.0643383 2.8658,0.1103115 3.5,0.49999952 0.6342,0.389689 2.0749,1.664321 2.625,3.750001 0.5501,2.08568 -0.269,4.27641 -0.5,5.2499999 -0.2309,0.97355 -0.7413,2.67195 -1.75,4.49995 -1.0087,1.8281 -2.1492,2.6254 -2.5,3.375 -0.3508,0.7497 -1.2549,2.9765 -1,4.125 0.255,1.1485 1.0382,1.1925 2.5928,2.1131 1.5545,0.9205 3.0893,1.0512 5,2.1284 1.9107,1.0773 3.5856,3.2177 4.4516,4.9988 0.8659,1.7811 1.7544,8.2177 2.4556,12.5098 0.7013,4.292 1.3929,9.2315 1.875,13.6875 0.4822,4.4559 1.7843,12.3204 1,12.5625 -0.7843,0.242 -1.2651,-3.0133 -1.75,-3.0625 -0.4849,-0.0493 -0.9409,1.6914 -1.375,1.5625 -0.434,-0.129 -0.5207,-5.7663 -1.25,-8.6251 -0.7293,-2.8587 -2.2723,-4.9763 -3.25,-8.75 -0.9777,-3.7736 -0.8449,-6.0962 -1.125,-7.375 -0.28,-1.2787 -0.6096,-5.3221 -1.5625,-5.4374 -0.9529,-0.1154 -2.0994,2.8761 -2.4375,4.25 -0.338,1.3738 -0.0576,4.443 0.375,9.8125 0.4327,5.3694 1.4478,10.5001 1.625,13.1875 0.1773,2.6873 0.0958,7.2854 0.125,13.6875 0.0293,6.402 0.1857,11.1632 0,13.75 -0.1857,2.5867 -1.8538,8.282897 -1.75,12.124897 0.1039,3.842 0.6471,3.735 0.875,4.375 0.228,0.64 1.1181,1.527 1.125,2.125 0.007,0.598 0.3856,0.396 -0.5,1 -0.8856,0.604 -3.325,0.39 -4.125,0.375 -0.7999,-0.015 -3.1517,0.039 -3.875,-0.5 -0.7232,-0.539 -0.5696,-0.474 -0.5,-1.125 0.0696,-0.651 0.9626,-1.312 1.1875,-1.625 0.2249,-0.313 0.7951,-1.161 1.0708,-2.027 0.2757,-0.866 0.1172,-2.85 -0.0083,-4.723 -0.1254,-1.872 -0.5601,-2.9437 -0.875,-6.499897 -0.3149,-3.5563 -0.1258,-5.5669 -0.375,-8.75 -0.2492,-3.1832 -0.8696,-7.8062 -1.125,-9.875 -0.2553,-2.0689 -0.5244,-10.7356 -1.4375,-10.8125 -0.9131,-0.077 -1.753,5.0301 -2.1875,7.0625 -0.4345,2.0323 -0.8199,8.8773 -1.625,13.375 -0.805,4.4976 -2.3142,9.5282 -3.3125,13.937897 -0.9982,4.409 -1.2589,4.869 -1.1832,6.479 0.0757,1.61 1.9529,2.593 1.6207,3.208 -0.3322,0.615 -2.5709,1.341 -4.8749798,1.375 -2.30409,0.035 -4.11517,-0.006 -4.55217,-0.842 -0.43701,-0.837 1.19623,-2.771 1.48387,-3.483 0.28763,-0.713 0.29593,-1.753 0.9433,-4.05 0.64737,-2.297 0.79956,-4.907397 0.9375,-6.437397 0.13793,-1.5301 -0.06996,-3.695 0.3125,-8.875 0.38246,-5.1801 1.0424,-8.8913 1.5,-13.3125 0.4576,-4.4213 0.9738098,-11.3682 1.2499998,-13.25 0.27618,-1.8819 1.37488,-5.0574 1.85288,-6.764 0.478,-1.7067 -0.0535,1.4869 0.7721,-2.9861 0.8256,-4.4729 1.1604,-14.8167 0.25,-15.375 -0.9103,-0.5582 -0.9301,-0.3887 -2.125,1.125 -1.1948798,1.5138 -1.5879498,5.8652 -1.9999798,7.75 -0.41203,1.8849 -1.18296,7.7284 -2,11.125 -0.81704,3.3967 -1.39742,7.9938 -2.5,8.2501 -1.10258,0.2562 -0.71749,-2.0508 -1.75,-1.875 -1.03251,0.1757 -2.01766996,5.1881 -2.25000086,5.125 -0.2323311,-0.0632 0.60841886,-5.6667 1.25000086,-10.6251 0.64158,-4.9583 1.26613,-8.662 1.5,-10.625 0.23387,-1.9629 0.0604,-4.8579 0.875,-9 0.8146,-4.142 1.72442,-7.4322 2.625,-8.75 0.90058,-1.3177 3.09377,-3.1777 5.9999798,-4.6875 2.9062,-1.5097 4.9341,-1.1037 5.5041,-1.8726 0.5699,-0.7688 1.0862,-2.9756 0.6461,-4.9093 -0.44,-1.9337 -0.9499,-2.8432 -1.2752,-3.5306 -0.3253,-0.6873 -1.2807,-1.5231 -1.75,-3.75 -0.4692,-2.2268099 -0.2344,-4.9381599 0.125,-5.8749499 0.3595,-0.93679 1.8813,-2.88395 3.125,-3.625001 1.2438,-0.74105302 2.2492,-0.81066132 4,-0.87499952 z"
     sodipodi:nodetypes="csssssssssssssssssssssssssssssssssssssssssssssssssssssssssssssssssssssss" />
</svg>
