<?xml version="1.0" encoding="UTF-8"?><svg id="Ebene_1" xmlns="http://www.w3.org/2000/svg" viewBox="0 0 732.5 194.78"><defs><style>.cls-1{fill:#fff;}.cls-2{fill:#c6c6c6;}</style></defs><g><path class="cls-1" d="M0,20.96H10.43v5.42c3.27-3.58,8.08-6.03,13.4-6.03,6.34,0,10.94,2.86,13.9,6.75,2.86,3.68,3.68,7.05,3.68,19.84s-.82,16.05-3.68,19.73c-2.96,3.88-7.57,6.75-13.9,6.75-5.32,0-9.51-2.45-13.4-6.13v26.48H0V20.96Zm30.98,25.97c0-8.08-.51-16.15-10.33-16.15s-10.23,8.59-10.23,16.15,.51,16.05,10.23,16.05,10.33-8.08,10.33-16.05Z"/><path class="cls-1" d="M53.07,20.96h10.43v5.52h.21c3.27-4.09,7.97-6.13,13.5-6.13,4.19,0,7.67,1.53,10.84,3.99l-7.57,9c-2.45-1.84-4.19-2.56-6.85-2.56-5.11,0-10.12,3.27-10.12,10.84v31.18h-10.43V20.96Z"/><path class="cls-1" d="M94.08,26.99c2.86-3.17,7.67-6.65,15.75-6.65s12.88,3.48,15.75,6.65c3.99,4.4,5.62,8.69,5.62,19.84s-1.64,15.54-5.62,19.94c-2.86,3.17-7.67,6.64-15.75,6.64s-12.88-3.47-15.75-6.64c-3.99-4.4-5.62-8.69-5.62-19.94s1.64-15.44,5.62-19.84Zm24.13,7.56c-1.53-2.15-4.81-3.78-8.38-3.78s-6.85,1.64-8.38,3.78c-1.94,2.76-2.56,4.81-2.56,12.27s.61,9.61,2.56,12.37c1.53,2.15,4.81,3.78,8.38,3.78s6.85-1.63,8.38-3.78c1.94-2.76,2.56-4.81,2.56-12.27s-.61-9.61-2.56-12.37Z"/><path class="cls-1" d="M142.75,20.96h10.43v5.52h.2c3.27-4.09,7.97-6.13,13.5-6.13,7.26,0,10.94,2.96,14.62,6.75,4.29-4.7,9.3-6.75,16.36-6.75,8.08,0,17.28,6.24,17.28,18v34.46h-10.43v-30.88c0-7.05-4.4-11.14-10.23-11.14s-10.33,4.09-10.33,11.14v30.88h-10.43v-30.88c0-7.05-4.4-11.14-10.22-11.14s-10.33,4.09-10.33,11.14v30.88h-10.43V20.96Z"/><path class="cls-1" d="M237.13,50.82c0,8.49,5.21,12.78,12.37,12.78,3.99,0,8.28-1.84,11.35-5.01l7.57,6.44c-5.11,5.93-11.76,8.38-18.71,8.38-10.63,0-23.01-5.11-23.01-26.38,0-20.14,11.35-26.69,21.37-26.69,11.45,0,21.37,8.49,21.37,21.88v8.59h-32.31Zm21.88-8.59c-.31-7.87-4.81-12.07-10.94-12.07s-10.74,4.19-10.94,12.07h21.88Z"/><path class="cls-1" d="M280.99,5.21h10.43v15.75h7.57v7.97h-7.57v30.16c0,2.86,1.12,3.89,3.68,3.89h3.89v9.82h-5.42c-7.26,0-12.58-4.6-12.58-12.78V28.94h-5.21v-7.97h5.21V5.21Z"/><path class="cls-1" d="M308.8,0h10.43V26.48h.2c3.27-4.09,7.98-6.13,13.5-6.13,8.08,0,17.28,6.24,17.28,18v34.46h-10.43v-30.88c0-7.05-4.4-11.14-10.22-11.14s-10.33,4.09-10.33,11.14v30.88h-10.43V0Z"/><path class="cls-1" d="M371.59,50.82c0,8.49,5.22,12.78,12.37,12.78,3.99,0,8.28-1.84,11.35-5.01l7.57,6.44c-5.11,5.93-11.76,8.38-18.71,8.38-10.64,0-23.02-5.11-23.02-26.38,0-20.14,11.36-26.69,21.38-26.69,11.45,0,21.37,8.49,21.37,21.88v8.59h-32.31Zm21.88-8.59c-.31-7.87-4.8-12.07-10.94-12.07s-10.74,4.19-10.94,12.07h21.88Z"/><path class="cls-1" d="M414.84,20.96h10.43v30.88c0,7.05,4.4,11.15,10.33,11.15s10.23-4.09,10.23-11.15V20.96h10.43v51.84h-10.43v-5.52h-.21c-3.27,4.09-7.97,6.13-13.39,6.13-8.18,0-17.38-6.24-17.38-17.99V20.96Z"/><path class="cls-1" d="M471.28,56.95c4.5,4.4,9.41,6.64,16.36,6.64,5.93,0,10.22-2.25,10.22-6.64,0-3.68-2.76-4.81-6.34-5.11l-9.2-.82c-8.59-.72-14.92-5.83-14.92-14.72,0-10.53,8.38-15.95,19.32-15.95,9.1,0,15.23,2.76,20.35,7.05l-6.44,7.57c-4.09-2.86-8.28-4.81-13.91-4.81-6.65,0-8.9,2.66-8.9,6.24,0,2.25,1.64,4.5,6.85,4.91l8.59,.61c10.74,.72,15.03,7.26,15.03,15.54,0,10.12-9.41,15.95-21.47,15.95-8.38,0-16.15-3.07-22.8-9.3l7.26-7.16Z"/></g><g><path class="cls-2" d="M269.87,112.35h8.96c3.38,0,6.15,1.51,7.81,4.32,1.26,2.16,1.37,3.13,1.37,8.49,0,5.76-.29,6.77-1.44,8.56-1.51,2.37-4.17,4.24-7.99,4.24h-8.71v-25.61Zm3.88,21.94h4.64c2.19,0,3.74-.75,4.75-2.23,.86-1.29,.97-2.01,.97-6.76s-.11-5.72-1.15-7.12c-1.19-1.62-2.48-2.16-4.57-2.16h-4.64v18.28Z"/><path class="cls-2" d="M301.78,136.35h-.07c-.75,1.26-2.01,1.84-4.5,1.84-4.06,0-6.44-2.41-6.44-5.58,0-2.91,2.01-5.4,5.94-5.4h5.07v-1.91c0-1.73-1.12-2.34-3.74-2.34-1.91,0-2.81,.36-3.45,1.41l-2.88-2.2c1.4-1.94,3.42-2.66,6.15-2.66,4.5,0,7.59,1.51,7.59,6.01v12.45h-3.67v-1.62Zm0-6.12h-4.39c-2.16,0-3.17,.86-3.17,2.2,0,1.22,.97,2.3,3.45,2.3,3.06,0,4.1-.32,4.1-3.17v-1.33Z"/><path class="cls-2" d="M310.74,132.39c1.58,1.55,3.31,2.34,5.76,2.34,2.09,0,3.6-.79,3.6-2.34,0-1.29-.97-1.69-2.23-1.8l-3.24-.29c-3.02-.25-5.25-2.05-5.25-5.18,0-3.71,2.95-5.61,6.8-5.61,3.2,0,5.36,.97,7.16,2.48l-2.27,2.66c-1.44-1.01-2.91-1.69-4.89-1.69-2.34,0-3.13,.94-3.13,2.19,0,.79,.58,1.58,2.41,1.73l3.02,.22c3.78,.25,5.29,2.55,5.29,5.47,0,3.56-3.31,5.61-7.55,5.61-2.95,0-5.68-1.08-8.02-3.28l2.55-2.52Z"/><path class="cls-2" d="M333.51,119.73h3.89l4.28,12.77h.07l4.28-12.77h3.89l-6.69,18.24h-3.02l-6.69-18.24Z"/><path class="cls-2" d="M354.63,130.23c0,2.99,1.83,4.5,4.35,4.5,1.4,0,2.91-.65,3.99-1.76l2.66,2.26c-1.8,2.09-4.14,2.95-6.59,2.95-3.74,0-8.09-1.8-8.09-9.28,0-7.08,3.99-9.39,7.52-9.39,4.03,0,7.52,2.99,7.52,7.7v3.02h-11.37Zm7.7-3.02c-.11-2.77-1.69-4.25-3.85-4.25s-3.78,1.48-3.85,4.25h7.7Z"/><path class="cls-2" d="M369.86,119.73h3.67v1.94h.07c1.15-1.44,2.81-2.16,4.75-2.16,1.48,0,2.7,.54,3.81,1.4l-2.66,3.17c-.86-.65-1.47-.9-2.41-.9-1.8,0-3.56,1.15-3.56,3.81v10.97h-3.67v-18.24Z"/><path class="cls-2" d="M384.07,114.18h3.67v5.54h2.66v2.8h-2.66v10.61c0,1.01,.39,1.37,1.29,1.37h1.37v3.45h-1.91c-2.55,0-4.42-1.62-4.42-4.5v-10.94h-1.84v-2.8h1.84v-5.54Z"/><path class="cls-2" d="M396.63,130.23c0,2.99,1.83,4.5,4.35,4.5,1.4,0,2.91-.65,3.99-1.76l2.66,2.26c-1.8,2.09-4.14,2.95-6.58,2.95-3.74,0-8.09-1.8-8.09-9.28,0-7.08,3.99-9.39,7.52-9.39,4.03,0,7.52,2.99,7.52,7.7v3.02h-11.37Zm7.7-3.02c-.11-2.77-1.69-4.25-3.85-4.25s-3.78,1.48-3.85,4.25h7.7Z"/><path class="cls-2" d="M411.95,112.35h3.67v3.67h-3.67v-3.67Zm0,7.38h3.67v18.24h-3.67v-18.24Z"/><path class="cls-2" d="M420.48,112.35h3.67v20.9c0,.83,.47,1.26,1.37,1.26h1.26v3.45h-1.62c-2.66,0-4.68-1.15-4.68-4.42v-21.19Z"/><path class="cls-2" d="M429.98,114.18h3.67v5.54h2.66v2.8h-2.66v10.61c0,1.01,.4,1.37,1.29,1.37h1.37v3.45h-1.9c-2.56,0-4.43-1.62-4.43-4.5v-10.94h-1.83v-2.8h1.83v-5.54Z"/><path class="cls-2" d="M442.53,130.23c0,2.99,1.84,4.5,4.35,4.5,1.4,0,2.91-.65,3.99-1.76l2.66,2.26c-1.8,2.09-4.14,2.95-6.58,2.95-3.74,0-8.1-1.8-8.1-9.28,0-7.08,3.99-9.39,7.52-9.39,4.03,0,7.52,2.99,7.52,7.7v3.02h-11.37Zm7.7-3.02c-.11-2.77-1.69-4.25-3.85-4.25s-3.78,1.48-3.85,4.25h7.7Z"/><path class="cls-2" d="M477.28,136.06c-1.15,1.26-2.84,2.12-4.71,2.12-2.23,0-3.85-1.01-4.89-2.37-1.01-1.3-1.3-2.48-1.3-6.98s.29-5.65,1.3-6.94c1.04-1.37,2.66-2.37,4.89-2.37,1.87,0,3.34,.87,4.71,2.16v-9.32h3.67v25.61h-3.67v-1.9Zm-7.23-7.23c0,2.84,.18,5.68,3.63,5.68s3.6-3.02,3.6-5.68-.18-5.65-3.6-5.65-3.63,2.84-3.63,5.65Z"/><path class="cls-2" d="M485.16,112.35h3.67v3.67h-3.67v-3.67Zm0,7.38h3.67v18.24h-3.67v-18.24Z"/><path class="cls-2" d="M503.94,136.06c-1.15,1.26-2.84,2.12-4.71,2.12-2.37,0-3.99-1.19-4.82-2.23-1.04-1.37-1.37-2.05-1.37-7.09s.32-5.76,1.37-7.12c.83-1.04,2.45-2.23,4.82-2.23,1.87,0,3.35,.72,4.71,2.16v-1.94h3.67v17.81c0,5.51-3.74,8.02-7.91,8.02-2.34,0-4.71-1.22-6.33-3.06l2.84-2.27c.9,.9,2.16,1.65,3.56,1.65,2.45,0,4.17-1.4,4.17-3.96v-1.87Zm-6.51-2.95c.5,.65,1.44,1.4,2.91,1.4s2.37-.75,2.88-1.4c.65-.83,.72-1.33,.72-4.24s-.07-3.45-.72-4.28c-.5-.65-1.44-1.4-2.88-1.4s-2.41,.75-2.91,1.4c-.65,.83-.72,1.33-.72,4.28s.07,3.42,.72,4.24Z"/><path class="cls-2" d="M512.47,112.35h3.67v3.67h-3.67v-3.67Zm0,7.38h3.67v18.24h-3.67v-18.24Z"/><path class="cls-2" d="M521.21,114.18h3.67v5.54h2.66v2.8h-2.66v10.61c0,1.01,.4,1.37,1.3,1.37h1.37v3.45h-1.91c-2.55,0-4.42-1.62-4.42-4.5v-10.94h-1.83v-2.8h1.83v-5.54Z"/><path class="cls-2" d="M540.56,136.35h-.07c-.75,1.26-2.01,1.84-4.5,1.84-4.06,0-6.44-2.41-6.44-5.58,0-2.91,2.01-5.4,5.93-5.4h5.07v-1.91c0-1.73-1.12-2.34-3.74-2.34-1.91,0-2.81,.36-3.46,1.41l-2.88-2.2c1.4-1.94,3.42-2.66,6.15-2.66,4.5,0,7.59,1.51,7.59,6.01v12.45h-3.67v-1.62Zm0-6.12h-4.39c-2.16,0-3.16,.86-3.16,2.2,0,1.22,.97,2.3,3.45,2.3,3.06,0,4.1-.32,4.1-3.17v-1.33Z"/><path class="cls-2" d="M548.98,112.35h3.67v20.9c0,.83,.47,1.26,1.37,1.26h1.26v3.45h-1.62c-2.66,0-4.68-1.15-4.68-4.42v-21.19Z"/><path class="cls-2" d="M561.03,130.23c0,2.99,1.84,4.5,4.35,4.5,1.4,0,2.91-.65,4-1.76l2.66,2.26c-1.8,2.09-4.14,2.95-6.58,2.95-3.74,0-8.09-1.8-8.09-9.28,0-7.08,4-9.39,7.52-9.39,4.03,0,7.52,2.99,7.52,7.7v3.02h-11.37Zm7.7-3.02c-.11-2.77-1.69-4.25-3.85-4.25s-3.78,1.48-3.85,4.25h7.7Z"/><path class="cls-2" d="M585.21,112.35h9.93c5,0,7.59,2.84,7.59,6.87,0,2.12-.79,4.17-3.78,5.5v.07c2.8,.65,4.17,3.31,4.17,5.9,0,4.42-3.27,7.27-7.12,7.27h-10.79v-25.61Zm3.88,3.45v7.34h5.61c2.81,0,4.14-1.66,4.14-3.67s-1.33-3.67-4.14-3.67h-5.61Zm0,10.79v7.7h5.97c2.88,0,4.17-1.83,4.17-3.85s-1.29-3.85-4.17-3.85h-5.97Z"/><path class="cls-2" d="M606.94,112.35h3.67v3.67h-3.67v-3.67Zm0,7.38h3.67v18.24h-3.67v-18.24Z"/><path class="cls-2" d="M615.46,112.35h3.67v20.9c0,.83,.47,1.26,1.37,1.26h1.26v3.45h-1.62c-2.66,0-4.68-1.15-4.68-4.42v-21.19Z"/><path class="cls-2" d="M635.65,136.06c-1.15,1.26-2.84,2.12-4.71,2.12-2.23,0-3.85-1.01-4.89-2.37-1.01-1.3-1.29-2.48-1.29-6.98s.29-5.65,1.29-6.94c1.04-1.37,2.66-2.37,4.89-2.37,1.87,0,3.35,.87,4.71,2.16v-9.32h3.67v25.61h-3.67v-1.9Zm-7.23-7.23c0,2.84,.18,5.68,3.63,5.68s3.6-3.02,3.6-5.68-.18-5.65-3.6-5.65-3.63,2.84-3.63,5.65Z"/><path class="cls-2" d="M652.99,136.35h-.07c-.76,1.26-2.02,1.84-4.5,1.84-4.07,0-6.44-2.41-6.44-5.58,0-2.91,2.01-5.4,5.94-5.4h5.07v-1.91c0-1.73-1.11-2.34-3.74-2.34-1.91,0-2.81,.36-3.45,1.41l-2.88-2.2c1.4-1.94,3.42-2.66,6.15-2.66,4.5,0,7.59,1.51,7.59,6.01v12.45h-3.67v-1.62Zm0-6.12h-4.39c-2.16,0-3.17,.86-3.17,2.2,0,1.22,.97,2.3,3.45,2.3,3.06,0,4.1-.32,4.1-3.17v-1.33Z"/><path class="cls-2" d="M661.41,119.73h3.67v1.94h.07c1.15-1.44,2.8-2.16,4.75-2.16,1.48,0,2.7,.54,3.82,1.4l-2.67,3.17c-.86-.65-1.47-.9-2.41-.9-1.8,0-3.56,1.15-3.56,3.81v10.97h-3.67v-18.24Z"/><path class="cls-2" d="M688.18,135.02c-1.58,1.83-3.78,3.17-6.55,3.17-4.21,0-8.27-2.66-8.27-9.32s4.07-9.35,8.27-9.35c2.77,0,4.97,1.33,6.55,3.16l-2.7,2.41c-.9-1.11-2.19-1.91-3.71-1.91-2.99,0-4.75,1.69-4.75,5.69s1.76,5.65,4.75,5.65c1.51,0,2.8-.79,3.71-1.91l2.7,2.41Z"/><path class="cls-2" d="M690.73,112.35h3.67v9.32h.07c1.15-1.44,2.81-2.16,4.75-2.16,2.84,0,6.08,2.2,6.08,6.33v12.12h-3.67v-10.86c0-2.48-1.55-3.92-3.6-3.92s-3.63,1.44-3.63,3.92v10.86h-3.67v-25.61Z"/><path class="cls-2" d="M710.16,112.35h3.67v3.67h-3.67v-3.67Zm0,7.38h3.67v18.24h-3.67v-18.24Z"/><path class="cls-2" d="M716.09,119.73h3.89l4.28,12.77h.07l4.28-12.77h3.89l-6.69,18.24h-3.02l-6.69-18.24Z"/><path class="cls-2" d="M142.43,171.76h-1.83v-2.81h1.83v-2.41c0-3.42,2.12-4.96,4.96-4.96h2.37v3.45h-2.09c-1.19,0-1.58,.4-1.58,1.51v2.41h3.67v2.81h-3.67v15.43h-3.67v-15.43Z"/><path class="cls-2" d="M151.85,168.95h3.67v10.86c0,2.49,1.55,3.92,3.63,3.92s3.6-1.44,3.6-3.92v-10.86h3.67v18.24h-3.67v-1.94h-.07c-1.15,1.44-2.81,2.16-4.71,2.16-2.88,0-6.12-2.19-6.12-6.33v-12.12Zm1.98-6.73h3.88v3.89h-3.88v-3.89Zm6.33,0h3.89v3.89h-3.89v-3.89Z"/><path class="cls-2" d="M171.17,168.95h3.67v1.94h.07c1.15-1.44,2.81-2.16,4.75-2.16,1.48,0,2.7,.54,3.81,1.4l-2.66,3.17c-.86-.65-1.47-.9-2.41-.9-1.8,0-3.56,1.15-3.56,3.81v10.97h-3.67v-18.24Z"/><path class="cls-2" d="M194.12,161.58h16.37v3.67h-12.48v7.56h10.65v3.45h-10.65v10.94h-3.88v-25.61Z"/><path class="cls-2" d="M213.56,171.08c1.01-1.12,2.7-2.34,5.54-2.34s4.53,1.23,5.54,2.34c1.4,1.54,1.98,3.06,1.98,6.98s-.58,5.47-1.98,7.01c-1.01,1.12-2.7,2.34-5.54,2.34s-4.53-1.22-5.54-2.34c-1.4-1.55-1.98-3.06-1.98-7.01s.58-5.43,1.98-6.98Zm8.49,2.66c-.54-.75-1.69-1.33-2.95-1.33s-2.41,.58-2.95,1.33c-.68,.97-.9,1.69-.9,4.32s.22,3.38,.9,4.35c.54,.75,1.69,1.33,2.95,1.33s2.41-.58,2.95-1.33c.68-.97,.9-1.69,.9-4.32s-.22-3.38-.9-4.35Z"/><path class="cls-2" d="M230.46,168.95h3.67v1.94h.07c1.15-1.44,2.81-2.16,4.75-2.16,1.47,0,2.7,.54,3.81,1.4l-2.66,3.17c-.86-.65-1.47-.9-2.41-.9-1.8,0-3.56,1.15-3.56,3.81v10.97h-3.67v-18.24Z"/><path class="cls-2" d="M245,181.62c1.58,1.55,3.31,2.34,5.76,2.34,2.09,0,3.6-.79,3.6-2.34,0-1.29-.97-1.69-2.23-1.8l-3.24-.29c-3.02-.25-5.25-2.05-5.25-5.18,0-3.71,2.95-5.61,6.8-5.61,3.2,0,5.36,.97,7.16,2.49l-2.27,2.66c-1.44-1.01-2.91-1.69-4.89-1.69-2.34,0-3.13,.94-3.13,2.2,0,.79,.58,1.58,2.41,1.73l3.02,.22c3.78,.25,5.29,2.55,5.29,5.47,0,3.56-3.31,5.61-7.56,5.61-2.95,0-5.68-1.08-8.02-3.27l2.55-2.52Z"/><path class="cls-2" d="M275.15,184.24c-1.58,1.83-3.78,3.17-6.55,3.17-4.21,0-8.27-2.66-8.27-9.32s4.06-9.35,8.27-9.35c2.77,0,4.96,1.33,6.55,3.17l-2.7,2.41c-.9-1.12-2.19-1.91-3.71-1.91-2.99,0-4.75,1.69-4.75,5.68s1.76,5.65,4.75,5.65c1.51,0,2.81-.79,3.71-1.91l2.7,2.41Z"/><path class="cls-2" d="M277.7,161.58h3.67v9.32h.07c1.15-1.44,2.81-2.16,4.75-2.16,2.84,0,6.08,2.2,6.08,6.33v12.12h-3.67v-10.86c0-2.48-1.55-3.92-3.6-3.92s-3.63,1.44-3.63,3.92v10.86h-3.67v-25.61Z"/><path class="cls-2" d="M297.02,168.95h3.67v10.86c0,2.49,1.55,3.92,3.63,3.92s3.6-1.44,3.6-3.92v-10.86h3.67v18.24h-3.67v-1.94h-.07c-1.15,1.44-2.81,2.16-4.71,2.16-2.88,0-6.12-2.19-6.12-6.33v-12.12Z"/><path class="cls-2" d="M316.34,168.95h3.67v1.94h.07c1.15-1.44,2.81-2.16,4.75-2.16,2.84,0,6.08,2.2,6.08,6.33v12.12h-3.67v-10.86c0-2.48-1.55-3.92-3.6-3.92s-3.63,1.44-3.63,3.92v10.86h-3.67v-18.24Z"/><path class="cls-2" d="M345.91,185.29c-1.15,1.26-2.84,2.12-4.71,2.12-2.37,0-3.99-1.19-4.82-2.23-1.04-1.37-1.37-2.05-1.37-7.09s.32-5.75,1.37-7.12c.83-1.05,2.45-2.23,4.82-2.23,1.87,0,3.34,.72,4.71,2.16v-1.94h3.67v17.81c0,5.51-3.74,8.02-7.91,8.02-2.34,0-4.71-1.22-6.33-3.06l2.84-2.27c.9,.9,2.16,1.65,3.56,1.65,2.45,0,4.17-1.4,4.17-3.96v-1.87Zm-6.51-2.95c.5,.65,1.44,1.4,2.91,1.4s2.37-.75,2.88-1.4c.65-.83,.72-1.33,.72-4.25s-.07-3.45-.72-4.28c-.5-.65-1.44-1.4-2.88-1.4s-2.41,.75-2.91,1.4c-.65,.83-.72,1.33-.72,4.28s.07,3.42,.72,4.25Z"/><path class="cls-2" d="M377.25,184.6c-2.12,1.58-4.43,2.81-7.16,2.81-4.83,0-8.1-3.67-8.1-7.88,0-3.02,1.76-5.86,4.89-7.48-1.22-1.4-2.12-3.13-2.12-4.86,0-3.09,2.3-5.83,5.76-5.83s5.76,2.73,5.76,5.83c0,2.37-1.22,4.28-4.28,5.72l5.47,6.58c1.04-1.33,1.69-2.73,2.23-4.28l3.27,1.29c-.76,1.87-1.91,4.03-3.35,5.54l4.32,5.14h-4.32l-2.38-2.59Zm-8.32-10.11c-2.59,1.4-3.71,3.2-3.71,5,0,2.7,2.2,4.68,4.75,4.68,1.58,0,3.45-.65,5.15-2.27l-6.19-7.41Zm.97-4.17c2.38-.9,3.13-1.98,3.13-3.27s-1.08-2.45-2.52-2.45-2.52,1.12-2.52,2.45c0,1.04,.79,2.27,1.91,3.27Z"/><path class="cls-2" d="M395.24,161.58h3.89v21.94h12.48v3.67h-16.37v-25.61Z"/><path class="cls-2" d="M417.69,179.46c0,2.99,1.83,4.5,4.35,4.5,1.4,0,2.91-.65,3.99-1.76l2.66,2.26c-1.8,2.09-4.14,2.95-6.58,2.95-3.74,0-8.1-1.8-8.1-9.28,0-7.09,3.99-9.39,7.52-9.39,4.03,0,7.52,2.99,7.52,7.7v3.02h-11.37Zm7.7-3.02c-.11-2.77-1.69-4.25-3.85-4.25s-3.78,1.48-3.85,4.25h7.7Z"/><path class="cls-2" d="M432.91,161.58h3.67v9.32h.07c1.15-1.44,2.8-2.16,4.75-2.16,2.84,0,6.08,2.2,6.08,6.33v12.12h-3.67v-10.86c0-2.48-1.55-3.92-3.6-3.92s-3.63,1.44-3.63,3.92v10.86h-3.67v-25.61Z"/><path class="cls-2" d="M452.23,168.95h3.67v1.94h.07c1.15-1.44,2.81-2.16,4.75-2.16,1.47,0,2.7,.54,3.81,1.4l-2.66,3.17c-.87-.65-1.48-.9-2.41-.9-1.8,0-3.56,1.15-3.56,3.81v10.97h-3.67v-18.24Z"/><path class="cls-2" d="M468.35,179.46c0,2.99,1.84,4.5,4.35,4.5,1.41,0,2.92-.65,4-1.76l2.66,2.26c-1.8,2.09-4.14,2.95-6.58,2.95-3.74,0-8.1-1.8-8.1-9.28,0-7.09,3.99-9.39,7.52-9.39,4.03,0,7.52,2.99,7.52,7.7v3.02h-11.37Zm7.7-3.02c-.11-2.77-1.69-4.25-3.85-4.25s-3.78,1.48-3.85,4.25h7.7Z"/></g></svg>