<?xml version="1.0" encoding="UTF-8" standalone="no"?>
<svg
  width="388.29236"
  version="1.1"
  viewBox="0.40238958 -0.30496246 388.29236 88.961742"
  height="88.961746"
  xmlns="http://www.w3.org/2000/svg"
>
  <path
    d="m 180.83305,88.598758 c -0.7219,-0.1293 -1.59141,-0.51046 -2.16744,-0.95012 l -0.46552,-0.35531 0.50891,-0.38066 c 0.88155,-0.6594 0.97414,-0.67816 1.59637,-0.32335 0.46645,0.26598 0.67551,0.31241 1.40661,0.31241 0.66573,0 0.93947,-0.0507 1.21794,-0.22567 0.52276,-0.32842 0.93171,-1.08748 0.93171,-1.72936 0,-0.53827 0,-0.53827 -0.28626,-0.35683 -0.50587,0.32063 -1.41159,0.64388 -1.9509,0.69625 -0.29738,0.0289 -0.8489,-0.0303 -1.27354,-0.13667 -0.56427,-0.14135 -0.89504,-0.31345 -1.3411,-0.6978 -0.38279,-0.32983 -0.65231,-0.68447 -0.76248,-1.00329 -0.1157,-0.33483 -0.1703,-1.14467 -0.17007,-2.52302 0,-2.00168 0.005,-2.03865 0.35742,-2.65882 0.59511,-1.04807 1.75552,-1.57782 3.23248,-1.47567 0.67708,0.0468 0.93759,0.12638 1.47649,0.45083 l 0.65435,0.39397 0.0395,-0.38228 0.0395,-0.38228 h 0.95284 0.95284 l -0.0381,4.68644 -0.0381,4.68645 -0.34385,0.56164 c -0.43282,0.70699 -1.34359,1.40488 -2.11536,1.62093 -0.79882,0.22362 -1.7487,0.29138 -2.41414,0.17221 z m 2.10002,-5.25539 c 0.66391,-0.3488 0.84751,-0.78132 0.88608,-2.0873 0.0187,-0.63309 -0.0166,-1.34082 -0.0784,-1.57275 -0.12607,-0.47316 -0.5473,-0.9176 -1.02418,-1.08059 -0.51598,-0.17636 -1.38027,-0.11539 -1.84081,0.12987 -0.23219,0.12364 -0.5185,0.39975 -0.63626,0.61356 -0.17514,0.31804 -0.20654,0.65469 -0.17257,1.85073 0.0362,1.27646 0.0738,1.49321 0.29597,1.70808 0.68806,0.66548 1.78257,0.85218 2.57014,0.4384 z m -99.742779,1.81125 c -0.67068,-0.20617 -1.27245,-0.58144 -1.60702,-1.00217 -0.5758,-0.72406 -0.64711,-1.20221 -0.64711,-4.33893 v -2.94243 h 1.01187 1.01188 l 0.0377,2.87764 c 0.0351,2.67887 0.0553,2.89783 0.29218,3.16986 0.38071,0.4372 0.86197,0.63959 1.52086,0.63959 0.70541,0 1.21662,-0.20665 1.54547,-0.62474 0.2173,-0.27625 0.24792,-0.5931 0.30515,-3.15731 l 0.0636,-2.85023 0.986,-0.032 0.986,-0.032 v 4.17034 4.17034 h -0.95419 c -0.9542,0 -0.9542,0 -0.9542,-0.3106 0,-0.17083 -0.0366,-0.34212 -0.0813,-0.38063 -0.0447,-0.0385 -0.2478,0.0507 -0.45134,0.19828 -0.42912,0.31112 -1.47543,0.60471 -2.13043,0.59777 -0.24969,-0.003 -0.67054,-0.0714 -0.93522,-0.15275 z m 32.117689,-0.0258 c -0.9037,-0.23807 -1.92311,-1.03814 -2.31267,-1.81509 -0.22738,-0.45349 -0.30246,-0.84886 -0.34911,-1.83842 -0.0631,-1.33964 0.077,-2.27694 0.43874,-2.93373 0.3043,-0.55255 1.0179,-1.14218 1.76664,-1.4597 0.52343,-0.22198 0.81442,-0.26534 1.77135,-0.26399 0.89715,0.001 1.27327,0.0523 1.73743,0.23595 0.68548,0.27114 1.5112,0.9623 1.82039,1.52375 0.33384,0.60618 0.48874,1.74595 0.41156,3.02836 -0.0496,0.82342 -0.14559,1.31829 -0.32288,1.66362 -0.36295,0.707 -1.18803,1.42847 -1.96369,1.7171 -0.86219,0.32083 -2.0972,0.37939 -2.99776,0.14215 z m 2.49349,-1.8596 c 0.6367,-0.40221 0.79303,-0.83983 0.79325,-2.2204 0,-1.0599 -0.0413,-1.32028 -0.27431,-1.7223 -0.17581,-0.30333 -0.42636,-0.53571 -0.69683,-0.6463 -0.48581,-0.19864 -1.36421,-0.23589 -1.82762,-0.0775 -0.40528,0.13852 -0.83484,0.53709 -1.01128,0.93829 -0.0757,0.17216 -0.14045,0.85231 -0.14389,1.51145 -0.005,0.94348 0.0428,1.2847 0.22458,1.60397 0.12697,0.22305 0.43123,0.52155 0.67614,0.66334 0.37132,0.21498 0.56711,0.25046 1.17854,0.2136 0.46781,-0.0282 0.85931,-0.12383 1.08142,-0.26415 z m 14.16592,1.93131 c -0.75387,-0.13692 -2.0134,-0.66612 -2.55829,-1.07487 l -0.44529,-0.33404 0.66846,-0.58178 c 0.49767,-0.43313 0.71223,-0.55398 0.83974,-0.473 0.58817,0.37354 1.22147,0.69218 1.596,0.80299 0.59908,0.17727 1.96707,0.1602 2.49862,-0.0312 0.45365,-0.16332 0.69484,-0.50923 0.69484,-0.99653 0,-0.43646 -0.48987,-0.61052 -2.13108,-0.75722 -1.56055,-0.13949 -2.28842,-0.35861 -2.84082,-0.85522 -0.43213,-0.3885 -0.65347,-0.95371 -0.64224,-1.64015 0.0181,-1.10912 0.69568,-1.89666 1.96167,-2.28006 0.79366,-0.24036 2.19598,-0.28721 3.11703,-0.10415 0.67666,0.13449 1.50314,0.4656 1.97362,0.79068 l 0.35676,0.2465 -0.61334,0.58996 -0.61335,0.58995 -0.65026,-0.29298 c -0.75637,-0.34078 -1.65686,-0.48296 -2.45143,-0.38707 -1.03899,0.12538 -1.49556,0.97439 -0.77285,1.43709 0.23334,0.14939 0.69402,0.23299 1.70614,0.30961 0.76256,0.0577 1.592,0.16128 1.84318,0.23012 0.68663,0.18816 1.38653,0.82476 1.6056,1.46038 0.10283,0.29839 0.18666,0.66924 0.18627,0.8241 -0.002,0.97426 -0.83565,1.93235 -2.01496,2.31701 -0.81663,0.26636 -2.43771,0.36901 -3.31402,0.20985 z m 9.74881,-6.6e-4 c -1.18897,-0.25866 -2.14972,-0.92256 -2.70744,-1.8709 -0.18175,-0.30905 -0.38841,-0.93213 -0.47089,-1.41976 -0.25883,-1.53007 0.19151,-3.12292 1.1484,-4.06199 0.21531,-0.21129 0.72478,-0.52969 1.13217,-0.70755 0.66563,-0.29062 0.86318,-0.32339 1.94934,-0.32339 1.04187,0 1.30519,0.0397 1.90838,0.28767 0.62259,0.25596 1.65393,0.93684 1.65393,1.09192 0,0.0322 -0.31452,0.2925 -0.69894,0.57847 l -0.69893,0.51994 -0.52279,-0.362 c -0.49549,-0.34311 -0.5769,-0.36201 -1.55931,-0.36201 -0.86849,0 -1.10102,0.0396 -1.43433,0.2445 -0.61315,0.37686 -0.86092,0.92853 -0.91611,2.03972 -0.035,0.70456 0.007,1.09318 0.15435,1.42512 0.41756,0.94138 1.20336,1.34351 2.45114,1.25435 0.51211,-0.0366 0.84018,-0.14022 1.26959,-0.40103 l 0.57905,-0.35168 0.68813,0.50657 c 0.37849,0.27862 0.68815,0.52432 0.68815,0.546 0,0.0217 -0.21469,0.21608 -0.47709,0.43198 -0.73247,0.60266 -1.68667,0.94851 -2.75066,0.99698 -0.49889,0.0227 -1.12266,-0.006 -1.38614,-0.0629 z m 18.60788,0.01 c -1.03703,-0.27181 -2.04017,-1.11876 -2.2744,-1.92027 -0.0872,-0.29849 -0.14206,-1.63285 -0.14206,-3.45688 v -2.97074 l 0.986,0.032 0.98599,0.032 0.0636,2.85024 c 0.0579,2.5941 0.0859,2.87867 0.31226,3.16666 0.71151,0.90544 2.71864,0.7748 3.19521,-0.20798 0.12505,-0.25788 0.17563,-1.08512 0.19002,-3.10758 l 0.0196,-2.75615 h 1.00402 1.00403 v 4.17034 4.17034 l -0.986,-0.032 -0.986,-0.032 0.0322,-0.35628 c 0.0177,-0.19595 -0.0163,-0.35628 -0.0757,-0.35628 -0.0594,0 -0.21046,0.0976 -0.33578,0.21696 -0.12533,0.11932 -0.53711,0.31664 -0.91507,0.43849 -0.69735,0.22482 -1.49931,0.27079 -2.07797,0.11913 z m 35.06752,-0.0569 c -0.79785,-0.19787 -1.69009,-0.7268 -2.19912,-1.30366 -0.22104,-0.25051 -0.50037,-0.71652 -0.62071,-1.03559 -0.30665,-0.81303 -0.20898,-1.9736 0.22836,-2.71361 0.34439,-0.58271 1.16656,-1.36063 1.75408,-1.65968 l 0.34933,-0.1778 -0.36957,-0.4396 c -0.37092,-0.44121 -0.74875,-1.3364 -0.74875,-1.77404 0,-0.48011 0.40541,-1.38596 0.78857,-1.76199 0.2178,-0.21373 0.63041,-0.49522 0.91693,-0.62554 0.39032,-0.17752 0.74428,-0.23694 1.41153,-0.23694 0.6691,0 1.02106,0.0593 1.41528,0.23859 0.60331,0.27433 1.14885,0.79141 1.41845,1.34445 0.27686,0.56792 0.24187,1.61868 -0.0713,2.14259 -0.28755,0.481 -0.89364,1.01391 -1.51813,1.33484 l -0.40967,0.21053 1.36386,1.4373 c 0.75012,0.79051 1.42111,1.42646 1.49108,1.4132 0.10912,-0.0207 0.95704,-1.33867 1.10158,-1.71229 0.0349,-0.0901 0.25475,-0.0608 0.74619,0.0997 1.15185,0.37611 1.13,0.3399 0.6801,1.12599 -0.21721,0.37953 -0.6029,0.92481 -0.85708,1.21172 -0.25418,0.28692 -0.46215,0.54949 -0.46215,0.58349 0,0.034 0.49705,0.56389 1.10454,1.17752 l 1.10452,1.11569 -1.13633,0.0339 -1.13634,0.0339 -0.64474,-0.59302 -0.64474,-0.59302 -0.50029,0.30723 c -0.27516,0.16898 -0.87242,0.43767 -1.32726,0.5971 -1.00505,0.35228 -2.32897,0.44215 -3.22819,0.21915 z m 2.22321,-1.50427 c 0.51826,-0.15438 1.64111,-0.73413 1.64111,-0.84734 0,-0.0635 -2.77766,-2.98302 -3.16714,-3.32889 -0.14733,-0.13084 -1.11531,0.52626 -1.48573,1.00855 -0.18265,0.23783 -0.37807,0.60808 -0.43427,0.82279 -0.13272,0.50704 0.0602,1.22839 0.44473,1.66278 0.61778,0.69789 1.93973,0.99834 3.0013,0.68211 z m -0.24222,-6.54839 c 0.40519,-0.22141 0.62861,-0.43602 0.73029,-0.70152 0.0806,-0.21039 0.10911,-0.51096 0.0634,-0.66795 -0.1131,-0.38828 -0.75591,-0.83289 -1.20418,-0.83289 -0.20125,0 -0.51604,0.0589 -0.69951,0.13096 -0.36463,0.14315 -0.69619,0.60287 -0.69619,0.96528 0,0.44497 0.74189,1.42512 1.07868,1.42512 0.0791,0 0.40646,-0.14355 0.72753,-0.319 z m 25.541,8.06973 c -1.32528,-0.32418 -2.25683,-1.10501 -2.66664,-2.23517 -0.49652,-1.36933 -0.3255,-3.5722 0.35068,-4.51687 0.36072,-0.50395 1.09856,-1.12015 1.6225,-1.35501 0.33598,-0.15061 0.83315,-0.24423 1.4631,-0.2755 0.75675,-0.0376 1.10106,4.3e-4 1.66402,0.18347 1.45373,0.47278 2.30471,1.442 2.53867,2.89136 0.0734,0.45484 0.11616,1.04085 0.095,1.30226 l -0.0385,0.47527 -3.03642,0.0294 -3.0364,0.0294 0.0727,0.38617 c 0.10927,0.58018 0.55951,1.12408 1.14278,1.38047 0.42452,0.18661 0.67287,0.21862 1.33881,0.17256 0.64563,-0.0446 0.93603,-0.12848 1.3807,-0.39855 l 0.56311,-0.342 0.6937,0.51604 0.6937,0.51604 -0.34897,0.31384 c -0.19193,0.17262 -0.70156,0.46342 -1.13251,0.64623 -0.6164,0.26147 -0.99662,0.34194 -1.78237,0.37725 -0.59484,0.0267 -1.23292,-0.0124 -1.57762,-0.0967 z m 2.995,-5.25678 c -0.151,-0.63361 -0.50675,-1.10168 -1.0075,-1.3256 -0.57517,-0.25719 -1.41385,-0.27011 -1.95254,-0.0301 -0.46203,0.20587 -0.86513,0.73751 -0.98634,1.30087 l -0.0885,0.41109 h 2.05988 2.05987 z m 23.84959,5.25677 c -1.17517,-0.28746 -1.95183,-0.86949 -2.47469,-1.85454 -0.40983,-0.7721 -0.57077,-1.93503 -0.42525,-3.07258 0.1739,-1.35933 0.70115,-2.27375 1.64982,-2.86132 0.67346,-0.41712 1.4214,-0.62004 2.28543,-0.62004 1.55858,0 2.9781,0.77061 3.59247,1.95021 0.2857,0.54855 0.34142,0.82171 0.3647,1.78778 l 0.0275,1.1403 -3.02946,0.0294 -3.02945,0.0294 0.0882,0.40529 c 0.12741,0.58517 0.38645,0.96299 0.85966,1.25382 0.34822,0.214 0.57322,0.2553 1.39103,0.2553 0.89224,0 1.02494,-0.03 1.55269,-0.35049 l 0.57709,-0.35049 0.70418,0.51016 0.70419,0.51015 -0.34729,0.31235 c -0.19101,0.17179 -0.69989,0.46191 -1.13084,0.64472 -0.6164,0.26147 -0.99662,0.34194 -1.78237,0.37725 -0.59484,0.0267 -1.23292,-0.0124 -1.57762,-0.0967 z m 2.99956,-5.31158 c -0.11924,-0.55419 -0.52234,-1.09412 -0.96363,-1.29075 -0.1997,-0.089 -0.65502,-0.16178 -1.01184,-0.16178 -0.35682,0 -0.81215,0.0728 -1.01184,0.16178 -0.43932,0.19575 -0.83546,0.73373 -0.95044,1.29075 l -0.0849,0.41109 h 2.05554 2.05553 z m -176.783379,1.83621 v -3.50799 h -0.50889 -0.50891 v -0.65775 -0.65774 h 0.50891 0.50889 v -0.91457 c 0,-0.73896 0.0559,-1.00733 0.29102,-1.39771 0.22328,-0.37071 0.45066,-0.55331 0.977,-0.78461 0.57619,-0.25322 0.84615,-0.30147 1.68657,-0.30147 h 1.00056 l -0.0374,0.79478 -0.0374,0.79477 -0.84847,0.0548 c -0.46666,0.0302 -0.87613,0.0795 -0.90995,0.10963 -0.0871,0.0776 -0.11791,0.40415 -0.10099,1.06884 l 0.0146,0.57552 h 0.95419 0.95419 v 0.65775 0.65775 h -0.95419 -0.95419 l -0.0244,3.26133 c -0.0134,1.79373 -0.0255,3.37232 -0.0268,3.50798 -0.002,0.23451 -0.0512,0.24666 -0.99336,0.24666 h -0.99103 z m 15.26707,-0.65775 v -4.16573 h 0.95419 0.95419 v 0.3967 0.39669 l 0.44327,-0.29132 c 1.17715,-0.77364 2.78369,-0.80617 3.99871,-0.081 0.18751,0.11192 0.13513,0.18204 -0.89563,1.19898 -0.36053,0.3557 -0.36839,0.35758 -0.76086,0.18271 -0.2181,-0.0972 -0.65639,-0.1767 -0.97396,-0.1767 -0.6224,0 -1.0365,0.20012 -1.4856,0.71797 -0.24649,0.28421 -0.26471,0.47397 -0.30195,3.14493 l -0.0396,2.84246 h -0.94637 -0.94638 z m 12.086429,-1.69918 v -5.86491 h 4.38928 4.38928 v 0.80848 c 0,0.80848 0,0.80848 -0.39758,0.877 -0.21866,0.0377 -1.7072,0.0685 -3.30786,0.0685 h -2.91029 v 1.69918 1.69917 h 2.79896 2.79897 l 1.1e-4,0.79478 1.2e-4,0.79478 -2.79908,-0.0315 -2.79908,-0.0315 v 2.52544 2.52544 h -1.08141 -1.08142 z m 19.33828,1.69918 v -4.16573 h 0.95419 0.95419 v 0.3848 0.38481 l 0.69802,-0.39934 c 0.58779,-0.33628 0.83659,-0.40788 1.57563,-0.45344 0.75386,-0.0465 0.97841,-0.0144 1.59206,0.22771 0.39293,0.15501 0.71441,0.31443 0.71441,0.35428 0,0.0711 -0.30881,0.40603 -1.03599,1.12344 -0.34644,0.34178 -0.38192,0.35229 -0.64776,0.19184 -0.17464,-0.10539 -0.55819,-0.16973 -1.01186,-0.16973 -0.63472,0 -0.78925,0.0444 -1.17725,0.33789 -0.25054,0.18954 -0.50353,0.51441 -0.57623,0.73996 -0.0713,0.22114 -0.12993,1.57369 -0.13031,3.00566 l -10e-4,2.60358 h -0.9542 -0.95419 z m 25.03723,4.0287 c -0.0294,-0.0754 -0.0498,-2.70224 -0.0454,-5.83751 l 0.008,-5.70047 0.986,-0.032 0.986,-0.032 v 2.09722 2.09722 l 0.37665,-0.27308 c 0.62087,-0.45015 1.41494,-0.65535 2.3397,-0.60461 0.62698,0.0344 0.961,0.12101 1.42443,0.36935 0.33298,0.17843 0.76629,0.49708 0.96293,0.7081 0.19664,0.21103 0.44872,0.69154 0.56015,1.06781 0.16504,0.55725 0.19541,1.19767 0.16376,3.45317 l -0.0389,2.76905 -0.97814,0.0319 -0.97814,0.0319 -0.0397,-2.84695 c -0.0373,-2.67547 -0.0555,-2.86518 -0.30198,-3.14942 -0.45546,-0.52517 -0.86133,-0.71797 -1.51144,-0.71797 -0.33179,0 -0.76926,0.0593 -0.97214,0.13166 -0.20289,0.0724 -0.49821,0.31084 -0.65627,0.52985 -0.27584,0.3822 -0.28897,0.51156 -0.32701,3.22102 l -0.0396,2.82283 h -0.93276 c -0.63289,0 -0.94995,-0.044 -0.98619,-0.13703 z m 20.44884,-0.4385 c -0.0434,-0.31654 -0.0619,-2.17879 -0.041,-4.13832 l 0.038,-3.5628 0.98599,-0.032 0.986,-0.032 v 0.40741 c 0,0.4074 0,0.4074 0.28626,0.18187 0.50385,-0.39698 1.15281,-0.61177 2.00757,-0.66447 0.67291,-0.0415 0.96098,-0.004 1.50071,0.19625 0.82573,0.30608 1.58412,1.02217 1.80612,1.70539 0.1137,0.34993 0.16747,1.42229 0.17593,3.509 l 0.0122,3.00507 -0.986,8e-5 -0.98599,8e-5 -10e-4,-2.60358 c 0,-1.43197 -0.059,-2.78451 -0.13031,-3.00565 -0.0727,-0.22555 -0.32569,-0.55042 -0.57623,-0.73997 -0.38438,-0.29079 -0.54524,-0.33789 -1.15412,-0.33789 -0.88703,0 -1.37102,0.23495 -1.70364,0.82699 -0.23001,0.4094 -0.25175,0.68184 -0.25175,3.1541 v 2.706 h -0.94503 -0.94505 z m 41.79066,-5.28938 v -5.86491 h 1.08142 1.08141 l -1.2e-4,5.01532 -1.2e-4,5.01532 3.01806,-0.0332 c 1.65994,-0.0183 3.14854,-0.005 3.30799,0.0295 0.26942,0.0583 0.28992,0.12068 0.28992,0.88279 v 0.8201 h -4.38928 -4.38928 z m 19.97441,0 v -5.86491 h 1.0178 1.01781 v 2.09261 2.09261 l 0.37665,-0.27309 c 0.20716,-0.15019 0.63667,-0.35865 0.95448,-0.46323 0.81201,-0.26721 2.02673,-0.17462 2.79432,0.21299 0.3153,0.15921 0.72505,0.46094 0.91056,0.6705 0.63789,0.72063 0.67755,0.97037 0.68355,4.30515 l 0.006,3.1015 -0.986,-0.032 -0.986,-0.032 -0.0275,-2.76624 c -0.0287,-2.89253 -0.07,-3.12659 -0.62744,-3.55393 -0.53159,-0.40757 -1.70479,-0.43979 -2.36853,-0.065 -0.17051,0.0963 -0.40444,0.34649 -0.51986,0.55607 -0.17767,0.32261 -0.20986,0.80305 -0.20986,3.13251 v 2.75145 h -1.0178 -1.01781 z m 10.30527,1.69918 v -4.16573 h 0.94651 0.94652 l 0.0395,0.3945 0.0395,0.39451 0.49238,-0.33818 c 0.91442,-0.62805 2.23058,-0.74192 3.3562,-0.29037 0.36736,0.14737 0.66793,0.30052 0.66793,0.34033 0,0.0398 -0.29811,0.37506 -0.66249,0.745 -0.36436,0.36995 -0.66994,0.68518 -0.67908,0.70052 -0.009,0.0153 -0.20357,-0.0525 -0.43207,-0.15071 -0.22851,-0.0982 -0.6797,-0.17402 -1.00265,-0.16843 -0.6296,0.0109 -1.03701,0.20851 -1.4779,0.71689 -0.24649,0.28421 -0.26471,0.47398 -0.30195,3.14493 l -0.0396,2.84247 h -0.94638 -0.94637 z M 82.035731,75.471268 c -0.0333,-0.0464 -0.051,-0.42869 -0.0393,-0.84959 l 0.0212,-0.76527 1.04961,-0.0318 1.04961,-0.0318 v 0.88143 0.88143 h -1.01029 c -0.55567,0 -1.03751,-0.0379 -1.07078,-0.0843 z m 3.35332,-0.79267 v -0.877 h 1.01781 1.0178 v 0.877 0.87699 h -1.0178 -1.01781 z m 179.161889,-8.56103 c -0.69482,-0.11351 -1.6757,-0.57288 -2.17942,-1.02068 l -0.39263,-0.34905 0.77897,-0.514 0.77895,-0.51399 0.36245,0.26279 c 0.5129,0.37187 1.19065,0.53881 1.86443,0.45924 0.74933,-0.0885 1.35393,-0.41978 1.60796,-0.88106 0.11411,-0.2072 0.20439,-0.64972 0.20439,-1.00188 0,-0.59189 -0.0137,-0.62037 -0.22264,-0.46211 -0.41611,0.3152 -1.31946,0.6446 -1.94199,0.70813 -0.73205,0.0747 -1.7588,-0.17641 -2.38084,-0.58229 -0.22586,-0.14737 -0.56936,-0.50059 -0.76336,-0.78495 -0.34548,-0.50641 -0.35362,-0.55853 -0.3974,-2.54505 -0.0279,-1.26659 0.01,-2.23878 0.10083,-2.5893 0.18483,-0.7128 0.81049,-1.35497 1.68669,-1.73119 0.49549,-0.21275 0.85349,-0.28314 1.43098,-0.28133 0.82599,0.003 1.69487,0.27146 2.20147,0.68125 0.28626,0.23156 0.28626,0.23156 0.28626,-0.17124 v -0.40279 h 1.01781 1.0178 v 4.20226 c 0,2.72077 -0.0514,4.42273 -0.14576,4.82764 -0.0802,0.34397 -0.32385,0.8825 -0.54151,1.19675 -0.43205,0.62374 -1.32216,1.21304 -2.09168,1.38479 -0.71879,0.16042 -1.682,0.20603 -2.28176,0.10806 z m 2.14751,-5.28125 c 0.23777,-0.13686 0.53533,-0.42052 0.66123,-0.63034 0.19337,-0.32222 0.22265,-0.60293 0.18842,-1.80662 -0.0448,-1.57461 -0.12288,-1.77287 -0.85282,-2.16455 -0.30003,-0.161 -0.63079,-0.23114 -1.06347,-0.22551 -0.67536,0.009 -1.089,0.20488 -1.54661,0.73323 -0.23411,0.2703 -0.26231,0.45934 -0.26231,1.75811 0,1.6358 0.0922,1.89626 0.82282,2.32403 0.59548,0.34866 1.45876,0.35356 2.05274,0.0117 z m -109.83367,1.85647 c -0.9603,-0.23408 -1.6069,-0.66834 -1.95537,-1.31322 -0.42443,-0.78547 -0.41168,-1.50682 0.0402,-2.27487 0.26261,-0.44632 0.50594,-0.67681 0.9756,-0.92406 0.61261,-0.3225 0.66658,-0.33018 2.57631,-0.36665 l 1.9506,-0.0372 v -0.58698 c 0,-0.46233 -0.0652,-0.6523 -0.30689,-0.89456 -0.28945,-0.2901 -0.37492,-0.3097 -1.50331,-0.34488 -1.14035,-0.0356 -1.21525,-0.0236 -1.59887,0.25451 -0.24096,0.17469 -0.46737,0.25877 -0.56412,0.20949 -0.0889,-0.0453 -0.41927,-0.25676 -0.73416,-0.46995 -0.31488,-0.21318 -0.60114,-0.40658 -0.63612,-0.42977 -0.035,-0.0232 0.18702,-0.23452 0.49334,-0.46963 0.32341,-0.24822 0.82657,-0.49647 1.19993,-0.59201 0.91993,-0.23539 2.55589,-0.21161 3.54464,0.0515 0.91172,0.24265 1.48424,0.66943 1.84249,1.3735 0.19158,0.37648 0.23027,0.892 0.27364,3.64502 l 0.0505,3.20651 h -1.03053 -1.03054 v -0.34798 c 0,-0.34798 0,-0.34798 -0.28626,-0.12332 -0.15744,0.12356 -0.4203,0.2843 -0.58412,0.35719 -0.4499,0.20018 -2.02872,0.24515 -2.71697,0.0774 z m 2.88291,-1.65369 c 0.33323,-0.11997 0.46345,-0.25197 0.56772,-0.57552 0.0744,-0.23092 0.13563,-0.60484 0.13601,-0.83094 l 10e-4,-0.4111 h -1.45481 c -1.50597,0 -2.03279,0.0945 -2.31574,0.4154 -0.20297,0.23021 -0.22058,0.72899 -0.0362,1.02585 0.0755,0.12153 0.3188,0.28901 0.5407,0.37219 0.52985,0.19859 2.01482,0.20098 2.56105,0.004 z m 6.80094,1.60644 c -0.83683,-0.19558 -2.11519,-0.78437 -2.50254,-1.15262 -0.19169,-0.18223 -0.16401,-0.23129 0.41745,-0.73996 0.34251,-0.29964 0.68946,-0.5448 0.771,-0.5448 0.0815,0 0.2232,0.0778 0.31484,0.17299 0.0916,0.0951 0.45648,0.29977 0.81075,0.45472 0.42511,0.18593 0.92999,0.29947 1.48489,0.33394 1.40909,0.0875 2.27625,-0.30663 2.27625,-1.0346 0,-0.52203 -0.40221,-0.7033 -1.81576,-0.81835 -1.56933,-0.12772 -2.22361,-0.27135 -2.80582,-0.61594 -0.67535,-0.39973 -1.01905,-1.01792 -1.02183,-1.83795 -0.002,-0.47341 0.0798,-0.79807 0.2887,-1.15106 0.35858,-0.60598 0.87169,-0.97155 1.71714,-1.22337 0.81043,-0.24139 2.31249,-0.25706 3.30428,-0.0345 0.72797,0.16338 1.71457,0.59272 1.96897,0.85685 0.0951,0.0987 -0.0317,0.29356 -0.46631,0.71694 l -0.59685,0.58138 -0.82697,-0.33813 c -0.67181,-0.27469 -0.98927,-0.33814 -1.69206,-0.33821 -1.05759,-1.1e-4 -1.56177,0.19615 -1.6783,0.65329 -0.11514,0.45169 0.007,0.71472 0.40394,0.8706 0.18512,0.0727 0.96,0.17927 1.72198,0.23689 0.76196,0.0576 1.59701,0.1808 1.85563,0.27374 0.73632,0.26462 1.28212,0.792 1.50579,1.45497 0.21532,0.63823 0.15494,1.38228 -0.15397,1.89698 -0.26228,0.43705 -1.15294,1.04665 -1.81881,1.24487 -0.32422,0.0965 -1.0475,0.19833 -1.60729,0.22624 -0.73434,0.0366 -1.25101,-0.004 -1.8551,-0.14494 z m 22.85473,0.0324 c -0.3458,-0.0856 -0.86106,-0.29563 -1.14503,-0.46664 -0.60417,-0.36384 -1.27264,-1.17527 -1.50059,-1.82149 -0.0951,-0.26972 -0.15937,-1.03744 -0.15736,-1.88086 0.003,-1.23966 0.0428,-1.51028 0.30582,-2.07947 0.3939,-0.85228 1.3624,-1.7034 2.22722,-1.95731 0.7995,-0.23473 1.89592,-0.23446 2.74089,6.5e-4 0.76796,0.21372 1.80865,0.96536 2.15603,1.55721 0.32952,0.56145 0.51824,1.42614 0.51824,2.37466 v 0.81679 h -3.06353 -3.06352 l 0.0849,0.35628 c 0.24117,1.01195 1.07378,1.61925 2.21358,1.61455 0.59266,-0.002 1.54174,-0.30543 1.94727,-0.62166 0.20587,-0.16053 0.27644,-0.13381 0.94355,0.35727 l 0.72102,0.53078 -0.58993,0.46021 c -0.32448,0.25312 -0.86254,0.54251 -1.19571,0.6431 -0.83699,0.25269 -2.36329,0.30897 -3.14286,0.11593 z m 3.10961,-5.121 c 0,-0.36189 -0.49889,-1.17496 -0.83863,-1.36678 -0.44192,-0.2495 -1.13402,-0.35616 -1.65457,-0.255 -0.74986,0.14572 -1.31997,0.72037 -1.49306,1.50495 l -0.0786,0.35628 h 2.03243 c 2.00477,0 2.03243,-0.003 2.03243,-0.23945 z m 19.17009,5.12435 c -1.88483,-0.46811 -2.88522,-1.87278 -2.88522,-4.05124 0,-1.06039 0.21796,-1.99373 0.62429,-2.67322 0.31858,-0.53274 0.95247,-1.07924 1.59542,-1.37545 0.42503,-0.19581 0.72804,-0.23756 1.72428,-0.23756 1.02212,0 1.297,0.0398 1.78116,0.25798 0.71843,0.32372 1.47925,0.94077 1.77626,1.44059 0.32456,0.5462 0.5138,1.41625 0.5138,2.36233 v 0.81678 h -3.06353 -3.06351 l 0.0892,0.35628 c 0.1741,0.69499 0.53574,1.14583 1.11192,1.38616 0.91378,0.38116 1.9868,0.27441 2.86054,-0.28459 l 0.41557,-0.26587 0.71334,0.52511 0.71332,0.52512 -0.58673,0.45772 c -0.32272,0.25175 -0.85935,0.54002 -1.19251,0.64061 -0.82971,0.25049 -2.3637,0.30897 -3.12764,0.11925 z m 3.03402,-5.29221 c -0.21109,-0.96955 -0.84236,-1.4552 -1.89241,-1.4559 -0.33929,-2.2e-4 -0.80224,0.0754 -1.02877,0.168 -0.43929,0.17961 -0.87896,0.75543 -1.02234,1.33893 l -0.0875,0.35628 h 2.05987 2.05988 z m 21.33073,5.28534 c -0.89403,-0.21591 -1.68687,-0.69963 -2.16397,-1.32027 -0.48134,-0.62615 -0.78641,-1.74108 -0.78441,-2.86685 0.003,-1.48829 0.52708,-2.69985 1.48234,-3.42437 0.76607,-0.58103 1.59621,-0.80884 2.75602,-0.75632 1.50922,0.0684 2.65874,0.71014 3.34759,1.86902 0.29798,0.50129 0.35214,0.74544 0.40206,1.8126 l 0.0577,1.23327 h -3.05591 -3.05589 l 0.11791,0.46591 c 0.22672,0.89583 0.89599,1.40887 1.93473,1.48309 0.80571,0.0576 1.46417,-0.10353 1.99438,-0.48796 l 0.37806,-0.27411 0.47748,0.32627 c 0.26262,0.17945 0.59007,0.43373 0.72769,0.56507 0.25022,0.2388 0.25022,0.2388 -0.25445,0.61197 -0.27757,0.20525 -0.81955,0.4794 -1.20441,0.60923 -0.89648,0.30243 -2.26467,0.36893 -3.15693,0.15345 z m 2.99129,-5.25885 c -0.16543,-0.87839 -0.70664,-1.35563 -1.68195,-1.48317 -0.47236,-0.0618 -0.69599,-0.031 -1.11363,0.15338 -0.28742,0.12687 -0.63031,0.35827 -0.76199,0.51423 -0.13168,0.15595 -0.27139,0.48894 -0.31046,0.73996 l -0.071,0.45642 h 2.00539 2.00539 z m 10.81062,5.2456 c -0.39689,-0.10507 -0.81062,-0.33167 -1.1684,-0.63997 -0.81024,-0.69813 -0.95246,-1.21833 -0.95246,-3.48361 0,-1.01749 0.0632,-2.06627 0.14045,-2.33061 0.0772,-0.26435 0.34601,-0.68755 0.59725,-0.94046 0.60879,-0.61283 1.5293,-0.97566 2.47883,-0.97705 0.80454,-10e-4 1.43982,0.18465 2.08829,0.61084 l 0.42033,0.27625 v -2.08845 -2.08844 h 1.0178 1.0178 v 5.86491 5.86491 h -1.0178 -1.0178 v -0.3967 -0.3967 l -0.45823,0.30116 c -0.53291,0.35024 -1.42282,0.60512 -2.0747,0.59423 -0.25128,-0.004 -0.73339,-0.0808 -1.07136,-0.17031 z m 2.90587,-1.93895 c 0.24091,-0.20759 0.48618,-0.57094 0.57307,-0.84898 0.0894,-0.28617 0.13177,-0.93719 0.10294,-1.58294 -0.0755,-1.69068 -0.53461,-2.26937 -1.81836,-2.29178 -0.77614,-0.0135 -1.3145,0.22901 -1.6078,0.72439 -0.32181,0.54352 -0.44926,1.98405 -0.255,2.88228 0.23672,1.09455 0.72721,1.47552 1.90332,1.47832 0.60206,10e-4 0.7293,-0.0403 1.10183,-0.36129 z m 30.53555,1.94134 c -0.85471,-0.23556 -1.50655,-0.70384 -1.84609,-1.32625 -0.22646,-0.41513 -0.27213,-0.66133 -0.2331,-1.25651 0.0397,-0.60617 0.11799,-0.82545 0.43202,-1.21085 0.2109,-0.25885 0.63856,-0.59396 0.95034,-0.74469 0.5231,-0.2529 0.71664,-0.27694 2.50705,-0.31131 l 1.94019,-0.0372 v -0.58698 c 0,-0.46238 -0.0652,-0.65227 -0.30696,-0.89456 -0.28699,-0.28757 -0.3811,-0.31004 -1.44616,-0.34535 -0.86783,-0.0288 -1.23415,0.005 -1.53781,0.13984 -0.21924,0.0977 -0.39861,0.22568 -0.39861,0.28443 0,0.0588 -0.0589,0.10681 -0.13097,0.10681 -0.1358,0 -1.4348,-0.84655 -1.49147,-0.97198 -0.0666,-0.14736 0.60799,-0.65424 1.1992,-0.90111 0.4702,-0.19634 0.89257,-0.26696 1.80271,-0.30143 2.06327,-0.0781 3.4341,0.42303 3.97764,1.4542 0.21172,0.40165 0.23551,0.77226 0.23801,3.70758 l 0.003,3.26133 h -0.95419 -0.95419 v -0.34798 c 0,-0.34798 0,-0.34798 -0.28626,-0.12332 -0.49235,0.3864 -0.86036,0.49258 -1.86095,0.53694 -0.65982,0.0292 -1.17228,-0.0128 -1.6032,-0.13156 z m 3.04598,-1.62449 c 0.33322,-0.11998 0.46344,-0.25198 0.56771,-0.57553 0.0744,-0.23092 0.13563,-0.60484 0.13601,-0.83094 l 10e-4,-0.41109 h -1.44411 c -1.5371,0 -2.17406,0.11874 -2.37534,0.44282 -0.0685,0.11028 -0.12454,0.36876 -0.12454,0.57441 0,0.39671 0.23318,0.65049 0.76597,0.83366 0.47566,0.16353 1.98319,0.14321 2.47303,-0.0333 z m 12.53641,1.63329 c -0.38486,-0.0915 -0.92875,-0.30268 -1.20865,-0.46921 -0.57522,-0.34224 -1.25757,-1.15508 -1.47437,-1.75634 -0.22589,-0.62643 -0.29645,-2.59942 -0.11803,-3.29998 0.21166,-0.83109 0.71048,-1.59224 1.37253,-2.09438 0.30363,-0.23029 0.8167,-0.49641 1.14017,-0.59138 0.76454,-0.22446 1.87149,-0.21964 2.7031,0.0118 0.76796,0.21372 1.80865,0.96536 2.15603,1.55721 0.32952,0.56144 0.51824,1.42614 0.51824,2.37466 v 0.81679 h -3.05918 -3.05917 l 0.0881,0.40481 c 0.13723,0.63025 0.52433,1.09569 1.11682,1.34283 0.70606,0.29451 1.58956,0.29202 2.27854,-0.006 0.29461,-0.12762 0.63331,-0.30595 0.75268,-0.3963 0.19678,-0.14896 0.28332,-0.11548 0.92784,0.35898 l 0.71081,0.52326 -0.40149,0.35693 c -0.22083,0.19632 -0.74178,0.48852 -1.15767,0.64933 -0.95306,0.36854 -2.28147,0.45643 -3.28632,0.21743 z m 2.99305,-5.28328 c -0.13043,-0.59906 -0.40899,-0.99942 -0.8682,-1.24786 -0.32214,-0.17428 -0.57271,-0.21234 -1.19836,-0.18202 -0.62643,0.0303 -0.8606,0.0943 -1.12531,0.30741 -0.39699,0.3196 -0.62664,0.68672 -0.73403,1.1735 l -0.0786,0.35628 h 2.04659 2.04659 z m 31.99397,5.28159 c -0.72829,-0.19486 -1.46139,-0.71659 -1.79235,-1.27559 -0.15084,-0.25477 -0.31384,-0.85451 -0.39189,-1.44192 -0.14662,-1.10347 -0.0527,-3.17877 0.17319,-3.82854 0.20533,-0.5905 0.93895,-1.27629 1.68591,-1.576 1.11707,-0.44821 2.35967,-0.30567 3.51502,0.4032 l 0.37244,0.22851 v -2.09033 -2.09033 h 1.0178 1.01781 v 5.86491 5.86491 h -1.01781 -1.0178 v -0.38127 -0.38127 l -0.59993,0.32783 c -1.02313,0.55908 -1.8741,0.66706 -2.96239,0.37589 z m 2.9339,-1.99574 c 0.22402,-0.21604 0.40766,-0.57098 0.50619,-0.97844 0.19767,-0.81731 0.0868,-2.41281 -0.20437,-2.94154 -0.11914,-0.21634 -0.39496,-0.47384 -0.61294,-0.57222 -0.21799,-0.0984 -0.65396,-0.17889 -0.96885,-0.17889 -0.31488,0 -0.75086,0.0805 -0.96884,0.17889 -0.54949,0.24801 -0.84533,0.84769 -0.9138,1.85236 -0.1101,1.61543 0.21207,2.55879 0.99588,2.91598 0.19252,0.0877 0.60496,0.12765 1.06472,0.10305 0.64864,-0.0347 0.79813,-0.0862 1.10201,-0.37919 z m 6.31763,2.04452 c -0.71334,-0.14473 -1.13935,-0.36421 -1.64735,-0.84871 -0.60242,-0.57457 -0.85158,-1.4518 -0.62317,-2.1941 0.22523,-0.732 0.71676,-1.28562 1.39827,-1.57493 0.51819,-0.21998 0.81885,-0.25481 2.4667,-0.28582 l 1.87658,-0.0353 v -0.6401 c 0,-0.58487 -0.035,-0.66545 -0.40509,-0.93381 -0.3858,-0.27972 -0.46103,-0.29192 -1.58031,-0.2564 -1.02869,0.0326 -1.21527,0.0697 -1.49651,0.29758 l -0.32131,0.26028 -0.62605,-0.39598 c -0.938,-0.5933 -0.96703,-0.64356 -0.56201,-0.97316 0.19115,-0.15555 0.60518,-0.39824 0.92006,-0.5393 0.51095,-0.2289 0.74352,-0.25648 2.16283,-0.25648 1.47885,0 1.64045,0.0212 2.3055,0.30263 0.81893,0.34653 1.30363,0.86807 1.50164,1.6158 0.0718,0.27132 0.13203,1.83758 0.13375,3.48057 l 0.003,2.98727 h -1.01781 -1.0178 v -0.33862 -0.33862 l -0.38564,0.2796 c -0.21208,0.15377 -0.59853,0.33054 -0.85877,0.39282 -0.55913,0.1338 -1.55291,0.13148 -2.22657,-0.005 z m 2.84668,-1.69439 c 0.20945,-0.0933 0.43562,-0.29386 0.50259,-0.44564 0.067,-0.15177 0.12176,-0.51939 0.12176,-0.81693 v -0.54098 h -1.45481 c -0.80015,0 -1.59868,0.0471 -1.77451,0.10473 -0.17582,0.0576 -0.4177,0.23362 -0.5375,0.39116 -0.17169,0.22578 -0.19331,0.37189 -0.10207,0.69005 0.0871,0.30375 0.22591,0.45103 0.56102,0.59528 0.57924,0.24933 2.14484,0.26236 2.68352,0.0223 z m 14.61016,1.66416 c -1.33597,-0.31039 -2.26492,-1.04306 -2.83415,-2.23534 -0.19843,-0.41561 -0.24995,-0.79452 -0.25697,-1.89012 -0.008,-1.17621 0.0318,-1.45799 0.27764,-1.98937 0.38145,-0.82437 1.14315,-1.54777 2.01807,-1.91661 0.54877,-0.23135 0.95115,-0.31106 1.74483,-0.34566 0.83702,-0.0365 1.16959,-1.1e-4 1.76339,0.19287 0.68202,0.22165 2.00554,1.00421 2.00193,1.18367 -10e-4,0.0438 -0.31524,0.31668 -0.69858,0.60636 l -0.69697,0.52669 -0.47825,-0.32932 c -0.96979,-0.66776 -2.46174,-0.65205 -3.25831,0.0343 -0.22569,0.19446 -0.48654,0.57202 -0.57967,0.83903 -0.0931,0.267 -0.16477,0.84004 -0.15918,1.27341 0.0205,1.59371 0.85765,2.44623 2.40158,2.4458 0.58861,-2.2e-4 1.03877,-0.15215 1.74229,-0.58827 0.33031,-0.20476 0.33031,-0.20476 1.0297,0.31009 0.63384,0.46659 0.68342,0.53451 0.52894,0.72454 -0.30639,0.37693 -1.27495,0.9045 -2.03447,1.10819 -0.851,0.22822 -1.67343,0.2445 -2.51182,0.0497 z m -217.03779,-5.82298 v -5.88092 l 3.02161,0.0346 c 3.02161,0.0346 3.02161,0.0346 3.81477,0.35025 0.91345,0.36354 1.76132,1.08326 2.24499,1.90569 0.17832,0.30321 0.38671,0.88835 0.46308,1.3003 0.14948,0.80621 0.14619,3.39892 -0.006,4.49682 -0.1246,0.90081 -0.61217,1.78076 -1.32883,2.39827 -0.32505,0.28008 -0.97092,0.66339 -1.44144,0.85546 -0.85246,0.34799 -0.85246,0.34799 -3.81045,0.38423 l -2.958,0.0362 z m 5.91708,3.90481 c 0.64141,-0.25107 1.28068,-0.87064 1.45436,-1.40952 0.16282,-0.50523 0.17346,-4.19471 0.0138,-4.78779 -0.16733,-0.62151 -0.77122,-1.29062 -1.41651,-1.56948 -0.48548,-0.20979 -0.78592,-0.24493 -2.21556,-0.25917 l -1.65394,-0.0165 -0.0333,4.12344 -0.0333,4.12344 1.68728,-0.002 c 1.3562,-0.002 1.78733,-0.0416 2.19726,-0.20204 z m 31.24647,1.71178 c -0.1408,-0.32386 -2.46184,-5.76877 -3.0141,-7.07078 l -0.43011,-1.01402 h 1.05696 1.05697 l 1.05185,2.7132 c 0.57852,1.49227 1.09559,2.78082 1.14904,2.86345 0.0601,0.0929 0.47054,-0.82807 1.07495,-2.41174 0.53778,-1.40909 1.03955,-2.69764 1.11502,-2.86345 0.13355,-0.29335 0.16421,-0.30146 1.13961,-0.30146 0.59523,0 1.00237,0.0453 1.00237,0.11159 0,0.0614 -0.7729,1.91675 -1.71755,4.12305 -0.94465,2.20629 -1.71754,4.03065 -1.71754,4.05413 0,0.0235 -0.37355,0.0427 -0.83012,0.0427 -0.74426,0 -0.8412,-0.0255 -0.93735,-0.24665 z m 15.76228,-3.91907 v -4.16573 h 1.0178 1.01781 v 0.38926 0.38927 l 0.42033,-0.27625 c 0.64974,-0.42702 1.28382,-0.61191 2.09853,-0.61191 0.54327,0 0.9159,0.0743 1.37176,0.2736 0.34423,0.15049 0.6402,0.27381 0.65769,0.27407 0.0175,2.2e-4 0.0318,-0.0952 0.0318,-0.21218 0,-0.16657 0.10333,-0.22 0.47709,-0.24665 l 0.4771,-0.034 0.036,-1.23328 0.036,-1.23327 h 0.94585 0.94586 l 0.036,1.23327 0.036,1.23328 0.66793,0.0331 0.66794,0.0331 v 0.65202 0.65202 h -0.69974 -0.69974 v 2.47375 c 0,1.49559 0.0521,2.55761 0.1317,2.6858 0.10001,0.16104 0.26834,0.21205 0.69974,0.21205 h 0.56804 v 0.82218 0.82218 h -0.80696 c -1.09494,0 -1.82297,-0.32454 -2.21465,-0.98724 -0.27449,-0.46443 -0.28626,-0.59825 -0.28626,-3.25653 v -2.77219 h -0.5089 c -0.48846,0 -0.50907,-0.0143 -0.51314,-0.35628 -0.004,-0.35628 -0.004,-0.35628 -0.75082,0.35562 -0.71278,0.67966 -0.75739,0.7035 -0.98456,0.52636 -0.48736,-0.38004 -1.7428,-0.28134 -2.27707,0.17902 -0.10506,0.0905 -0.27481,0.33739 -0.37722,0.54859 -0.14629,0.30169 -0.18621,0.96053 -0.18621,3.07333 v 2.68932 h -1.01781 -1.0178 z m 22.3917,0 v -4.16573 h 1.01215 1.01217 l 0.008,4.16573 0.008,4.16573 h -1.02043 -1.02042 z m 5.92791,4.05158 c -0.57151,-0.1473 -1.17885,-0.72346 -1.33849,-1.26976 -0.0937,-0.32069 -0.13881,-2.14321 -0.13395,-5.41465 l 0.007,-4.93126 h 1.01286 1.01284 v 4.91118 c 0,3.67363 0.0385,4.94432 0.15267,5.04272 0.084,0.0724 0.39885,0.13155 0.69974,0.13155 h 0.54707 v 0.82218 0.82219 l -0.79516,-0.009 c -0.43734,-0.005 -0.96154,-0.0523 -1.16496,-0.10472 z m 5.08902,0 c -0.5208,-0.13424 -1.20024,-0.73715 -1.34833,-1.19648 -0.0689,-0.2137 -0.12559,-1.58483 -0.12597,-3.04694 l -0.001,-2.6584 h -0.5089 -0.5089 v -0.65775 -0.65774 h 0.5089 0.5089 v -1.26068 -1.26069 h 1.01781 1.0178 v 1.25496 1.25495 l 0.66794,0.0331 0.66793,0.0331 0.0382,0.63034 0.0382,0.63034 h -0.70609 -0.70609 l -0.0129,2.2199 c -0.0138,2.38209 0.004,2.95851 0.0937,3.03755 0.0314,0.0277 0.32663,0.077 0.65607,0.10962 l 0.59898,0.0593 0.0401,0.79478 0.0401,0.79478 -0.80348,-0.009 c -0.4419,-0.005 -0.96985,-0.0523 -1.17266,-0.10472 z m 27.78686,-4.05158 v -4.16573 h 1.01215 1.01217 l 0.008,4.16573 0.008,4.16573 h -1.02042 -1.02043 z m 14.50371,0 v -4.16573 h 0.95419 0.95419 v 4.16573 4.16573 h -0.95419 -0.95419 z m 5.91599,3.95955 c -0.60531,-0.2395 -0.87657,-0.48398 -1.14018,-1.02759 -0.15802,-0.32586 -0.19569,-0.92007 -0.19569,-3.08626 v -2.6827 l -0.47709,-0.034 c -0.4771,-0.034 -0.4771,-0.034 -0.51526,-0.66437 l -0.0381,-0.63034 h 0.51525 0.51525 v -1.26068 -1.26068 h 1.01781 1.0178 v 1.26068 1.26068 h 0.69974 0.69974 v 0.65775 0.65774 h -0.69974 -0.69974 v 2.61926 c 0,2.91395 -0.0529,2.75234 0.90099,2.75234 h 0.49849 v 0.82219 0.82218 l -0.79516,-0.002 c -0.49676,-0.002 -0.98614,-0.078 -1.30406,-0.20376 z m 14.78155,0.0474 c -0.26704,-0.0821 -0.60413,-0.24022 -0.74911,-0.35146 -0.59671,-0.45789 -0.61015,-0.59146 -0.61015,-6.06366 v -5.15587 h 0.95043 0.95041 l 0.0356,4.93716 c 0.0394,5.47116 -0.0175,5.14341 0.89434,5.14661 l 0.4771,0.002 v 0.82219 0.82218 l -0.73155,-0.005 c -0.40235,-0.003 -0.95003,-0.0719 -1.21706,-0.15401 z m 17.8518,-5.70608 v -5.86491 h 3.03032 c 2.40144,0 3.17373,0.0363 3.72135,0.17499 0.6872,0.17402 1.38172,0.5493 1.8013,0.9733 0.38674,0.39082 0.7345,1.34836 0.7345,2.02241 0,0.8796 -0.4902,1.69018 -1.30979,2.16582 -0.54014,0.31347 -0.57352,0.35604 -0.33113,0.42233 0.36981,0.10113 1.23607,0.79091 1.4583,1.16118 0.10042,0.16733 0.24551,0.55707 0.32243,0.86609 0.10444,0.41962 0.10094,0.73947 -0.0138,1.26347 -0.26472,1.2089 -1.06488,2.02868 -2.4099,2.46905 -0.57431,0.18803 -0.99356,0.21118 -3.82429,0.21118 h -3.17928 z m 6.35223,3.91891 c 0.23994,-0.10543 0.55482,-0.33096 0.69974,-0.50118 0.20117,-0.2363 0.2635,-0.47425 0.2635,-1.00599 0,-0.53174 -0.0623,-0.76969 -0.2635,-1.00599 -0.14492,-0.17023 -0.4598,-0.39576 -0.69974,-0.50118 -0.35878,-0.15764 -0.78072,-0.1917 -2.37643,-0.19184 l -1.94019,-2.2e-4 v 1.69918 1.69918 l 1.94019,-2.2e-4 c 1.59571,-1.1e-4 2.01765,-0.0342 2.37643,-0.19174 z m -0.4767,-4.97927 c 0.27388,-0.0707 0.66697,-0.29441 0.87353,-0.49713 0.31965,-0.31368 0.37557,-0.45936 0.37557,-0.97818 0,-0.73817 -0.24843,-1.14147 -0.89644,-1.45529 -0.42108,-0.20392 -0.6819,-0.22958 -2.33333,-0.22958 h -1.85925 v 1.64436 1.64437 h 1.67098 c 0.91904,0 1.89506,-0.0579 2.16894,-0.12855 z m 5.57477,2.75954 v -4.16573 h 1.01781 1.0178 v 4.16573 4.16573 h -1.0178 -1.01781 z m 5.85617,3.99214 c -0.24284,-0.0907 -0.54813,-0.24814 -0.67844,-0.34976 -0.57976,-0.45208 -0.59761,-0.63336 -0.59761,-6.06751 v -5.13896 h 0.95043 0.95041 l 0.0356,4.93716 c 0.0394,5.47116 -0.0175,5.14341 0.89434,5.14661 l 0.4771,0.002 v 0.82219 0.82218 l -0.79516,-0.004 c -0.43734,-0.002 -0.99384,-0.0785 -1.23666,-0.1693 z m 23.02403,-3.99214 v -4.16573 h 1.01781 1.0178 v 0.40279 c 0,0.4028 0,0.4028 0.28626,0.17124 0.8531,-0.69007 2.4914,-0.89295 3.52899,-0.437 0.30873,0.13566 0.58119,0.30296 0.60548,0.37178 0.0243,0.0688 -0.24711,0.42671 -0.60311,0.7953 l -0.64727,0.67018 -0.40833,-0.18226 c -0.51314,-0.22903 -1.31381,-0.24446 -1.79639,-0.0346 -0.20362,0.0885 -0.48988,0.30016 -0.63613,0.47025 -0.25142,0.29243 -0.26794,0.46681 -0.30362,3.20652 l -0.0377,2.89726 h -1.01187 -1.01188 z m 15.52152,-1.69918 v -5.86491 h 1.0178 1.01781 v 2.10197 2.10198 l 0.28625,-0.23156 c 0.86505,-0.69973 2.44855,-0.88592 3.6012,-0.42344 0.75229,0.30184 1.48091,0.98642 1.69004,1.58788 0.0969,0.27861 0.14766,1.48526 0.14766,3.50882 v 3.08417 h -0.94469 -0.94469 l -0.0413,-2.84244 c -0.0388,-2.66967 -0.0573,-2.86083 -0.30362,-3.14493 -0.47331,-0.54581 -0.89351,-0.74228 -1.56871,-0.73351 -0.36258,0.005 -0.79022,0.0928 -1.02121,0.2104 -0.21859,0.11125 -0.51071,0.40393 -0.64917,0.65038 -0.23001,0.40939 -0.25175,0.68183 -0.25175,3.1541 v 2.706 h -1.01781 -1.0178 z m 10.30527,1.69918 v -4.16573 h 1.0178 1.01781 v 4.16573 4.16573 h -1.01781 -1.0178 z m 6.67833,4.0287 c -0.15736,-0.38073 -3.35865,-7.83779 -3.43548,-8.00259 -0.0809,-0.17357 0.0121,-0.19184 0.97644,-0.19184 h 1.06589 l 1.06405,2.7132 c 0.58522,1.49227 1.10476,2.77979 1.15452,2.86116 0.0542,0.0887 0.28224,-0.35036 0.56931,-1.09625 0.26335,-0.6843 0.76531,-1.97182 1.11545,-2.86115 l 0.63661,-1.61696 h 1.00343 c 0.58946,0 1.00342,0.0456 1.00342,0.1105 0,0.0608 -0.72234,1.7997 -1.60523,3.86427 -0.88287,2.06456 -1.66136,3.88942 -1.72998,4.05522 -0.11857,0.2865 -0.16542,0.30147 -0.94328,0.30147 -0.53979,0 -0.8378,-0.0467 -0.87515,-0.13703 z M 218.84866,51.881328 v -0.88161 h 1.02316 1.02314 l -0.0372,0.84959 -0.0372,0.84959 -0.986,0.032 -0.98599,0.032 z m 38.80379,0 v -0.88161 h 1.02316 1.02315 l -0.0371,0.84959 -0.0372,0.84959 -0.98599,0.032 -0.986,0.032 z m 14.58853,0.7993 c -0.0466,-0.0402 -0.0848,-0.43485 -0.0848,-0.877 v -0.80391 h 0.95419 0.95419 v 0.877 0.87699 h -0.86937 c -0.47816,0 -0.90755,-0.0329 -0.95419,-0.0731 z m 50.00075,9.8e-4 c -0.0473,-0.0408 -0.0859,-0.43583 -0.0859,-0.87798 v -0.80391 h 1.02316 1.02315 l -0.0371,0.84959 -0.0372,0.84959 -0.90007,0.0284 c -0.49505,0.0156 -0.93875,-0.005 -0.986,-0.0456 z m 54.71092,0.003 c -0.0494,-0.0426 -0.0899,-0.43921 -0.0899,-0.88137 v -0.80391 h 1.02316 1.02315 l -0.0371,0.84959 -0.0372,0.84959 -0.89613,0.0317 c -0.49288,0.0175 -0.93658,-0.003 -0.986,-0.0456 z M 0.40238958,25.893208 V 9.2281876 l 2.83076802,0.0295 2.830768,0.0295 0.02543,1.0414304 c 0.01399,0.57279 0.0283,1.08472 0.03181,1.13762 0.0035,0.0529 0.262346,-0.10713 0.575201,-0.35561 1.146278,-0.91043 2.708275,-1.6082404 4.3623124,-1.9488404 1.20709,-0.24857 3.263581,-0.22305 4.501811,0.0559 1.664525,0.37493 3.300898,1.2055804 4.371021,2.2188304 1.227952,1.16267 1.817458,2.19708 2.178351,3.82235 0.274615,1.23672 0.46205,5.04447 0.369784,7.51217 -0.09307,2.4891 -0.241716,3.87115 -0.518802,4.82348 -0.485349,1.66813 -1.815517,3.29282 -3.508015,4.28473 -1.587675,0.93048 -3.242615,1.35713 -5.264272,1.35713 -0.629766,0 -1.540777,-0.0722 -2.024469,-0.16054 -1.4474964,-0.26422 -3.1175264,-1.02978 -4.4483474,-2.03915 -0.323512,-0.24537 -0.589685,-0.4296 -0.591497,-0.40941 -0.0099,0.11002 -0.13435,11.17499 -0.129597,11.51989 l 0.0057,0.41109 H 3.2013846 0.40242258 Z m 12.56879142,2.40959 c 1.39194,-0.27666 2.510248,-1.03572 3.04074,-2.06392 0.582309,-1.12863 0.697354,-1.79342 0.766872,-4.43144 0.113652,-4.31274 -0.301256,-5.83081 -1.931591,-7.06735 -0.325238,-0.24668 -0.860111,-0.53134 -1.188606,-0.63257 -0.33262,-0.10251 -1.174212,-0.20964 -1.899352,-0.24178 -1.124792,-0.0499 -1.425133,-0.0236 -2.2057544,0.19266 -1.580621,0.43792 -2.582047,1.45794 -3.140911,3.19922 -0.186922,0.5824 -0.221427,1.18531 -0.221427,3.86902 0,2.68888 0.03407,3.28211 0.220936,3.847 0.121516,0.36734 0.341314,0.90238 0.488443,1.18897 0.50947,0.99241 1.638214,1.80926 2.907561,2.10416 0.7081754,0.16453 2.4185364,0.18401 3.1630894,0.036 z m 43.02877,4.73143 c -1.54358,-0.28994 -2.93737,-0.82515 -4.07881,-1.56626 -1.845172,-1.19803 -3.186057,-2.75431 -3.78849,-4.39705 -0.617519,-1.68389 -0.720729,-2.5549 -0.71736,-6.0539 0.0034,-3.52652 0.128424,-4.45996 0.814288,-6.07928 0.495471,-1.1698 1.071525,-1.96287 2.171736,-2.9899 1.810526,-1.69008 4.211566,-2.6983504 6.955486,-2.9208204 2.93098,-0.23763 5.58031,0.2715 7.69557,1.4788804 1.07287,0.61239 2.75301,2.13626 3.40657,3.08973 0.9992,1.45772 1.4593,3.26532 1.60999,6.32514 0.0899,1.82666 -0.0884,4.44772 -0.39931,5.86796 -0.24007,1.09664 -0.7681,2.28773 -1.379,3.1106 -0.5987,0.80644 -2.00737,2.07321 -2.93637,2.64059 -1.04823,0.64018 -1.88696,0.98781 -3.20835,1.32977 -0.95552,0.24727 -1.41094,0.2957 -3.09253,0.32882 -1.57295,0.031 -2.19083,-0.002 -3.05342,-0.16428 z m 4.23921,-4.78147 c 0.974,-0.2186 1.65029,-0.52738 2.31992,-1.05923 0.95355,-0.75735 1.49294,-1.73129 1.71937,-3.10454 0.19484,-1.18164 0.15358,-5.11755 -0.065,-6.19614 -0.32514,-1.60482 -1.21875,-2.78763 -2.59291,-3.43207 -1.7811,-0.83528 -4.20191,-0.82292 -5.93166,0.0303 -0.35374,0.17448 -0.79676,0.45626 -0.98449,0.62617 -0.62133,0.56236 -1.23352,1.57794 -1.46646,2.43275 -0.18724,0.68711 -0.22759,1.32427 -0.22652,3.57666 10e-4,2.99739 0.0914,3.59967 0.70494,4.71882 0.65245,1.19013 1.85917,2.04268 3.4142,2.41216 0.81243,0.19303 2.23673,0.1908 3.10856,-0.005 z m 69.615219,4.76978 c -2.33526,-0.40612 -4.11569,-1.18802 -5.59343,-2.45642 -0.49924,-0.42853 -1.1264,-1.06769 -1.39367,-1.42035 -1.02902,-1.35782 -1.80952,-3.364 -2.09626,-5.38814 -0.17944,-1.26667 -0.17944,-3.88568 0,-5.15235 0.27674,-1.9536 1.02645,-3.93138 2.04391,-5.39196 0.52266,-0.7503 1.81898,-1.97526 2.63963,-2.49433 2.0261,-1.2815404 4.98555,-1.9370904 7.66612,-1.6981304 0.65207,0.0581 1.52932,0.1854 1.94944,0.28282 1.11591,0.25875 2.93723,1.0250904 3.84462,1.6176404 2.10015,1.37148 3.55248,3.37067 4.18507,5.76092 0.12643,0.4777 0.21467,1.64146 0.26429,3.48519 l 0.0745,2.76802 h -8.60506 -8.60505 l 0.002,0.41109 c 0.004,0.7136 0.36196,1.92045 0.78261,2.63736 0.49331,0.84069 1.58223,1.74453 2.60314,2.16068 0.98076,0.39978 2.54631,0.63045 3.67305,0.54118 1.02454,-0.0812 2.54028,-0.48405 3.37148,-0.89612 0.31488,-0.1561 0.92393,-0.52271 1.35343,-0.81469 l 0.78091,-0.53086 1.38192,1.00278 c 0.76006,0.55153 1.66177,1.21325 2.00379,1.4705 l 0.62187,0.46772 -0.28027,0.31057 c -0.48931,0.54219 -1.85621,1.49906 -2.89007,2.02312 -1.33022,0.67427 -2.3867,1.02089 -3.94576,1.29455 -1.66651,0.29252 -4.18049,0.29649 -5.83234,0.009 z m 7.82249,-14.44467 c -0.003,-0.64103 -0.35025,-1.75759 -0.78152,-2.51244 -0.48007,-0.84025 -1.4963,-1.69799 -2.46403,-2.07973 -0.38697,-0.15266 -1.10747,-0.32921 -1.60109,-0.39234 -1.15057,-0.14714 -2.41445,0.0224 -3.50225,0.4697 -1.61883,0.66572 -2.80318,2.30301 -3.03913,4.20144 l -0.09,0.72447 h 5.73997 5.73998 z m 63.41059,14.45054 c -1.34381,-0.23972 -2.89586,-0.74905 -3.80221,-1.24777 -1.06564,-0.58636 -2.09005,-1.37807 -2.69997,-2.08668 -0.75895,-0.88175 -1.60293,-2.40519 -2.00509,-3.61937 -0.90564,-2.73421 -0.92826,-6.81721 -0.0534,-9.63401 0.57115,-1.8389 1.60391,-3.51757 2.90873,-4.72794 1.13223,-1.05027 3.08043,-2.0342404 4.77457,-2.4114904 1.29632,-0.28867 2.86556,-0.3954 4.14128,-0.28168 0.6435,0.0574 1.52074,0.18213 1.94944,0.27725 1.19648,0.26549 2.72363,0.8837604 3.65951,1.4815704 1.17902,0.75312 2.41526,1.91632 3.08606,2.90371 0.66129,0.97341 1.28505,2.58652 1.47231,3.80756 0.0723,0.47164 0.1315,1.88991 0.1315,3.15171 v 2.29418 h -8.60021 -8.60022 l 0.0846,0.68515 c 0.19047,1.54298 0.84811,2.82788 1.86818,3.65004 1.33324,1.07456 3.60995,1.63591 5.57136,1.37369 1.62576,-0.21735 3.16642,-0.83313 4.4894,-1.79435 l 0.60933,-0.44271 0.34286,0.26473 c 0.40123,0.30981 0.24708,0.19551 2.1191,1.57127 0.81372,0.59801 1.4795,1.14017 1.4795,1.2048 0,0.1965 -1.63484,1.45931 -2.59439,2.00401 -1.09633,0.62234 -2.5214,1.16603 -3.85433,1.47048 -0.7634,0.17437 -1.49571,0.23695 -3.15681,0.26975 -1.76558,0.0349 -2.37558,0.005 -3.3211,-0.1639 z m 7.83609,-14.56016 c -0.003,-1.15972 -0.78024,-2.76662 -1.72598,-3.57001 -0.8129,-0.69054 -1.86718,-1.14441 -3.01572,-1.29827 -1.10369,-0.14785 -2.11969,-0.0412 -3.31841,0.34826 -0.96686,0.31414 -2.05953,1.2384 -2.61648,2.21323 -0.34633,0.60617 -0.75311,2.00262 -0.76776,2.63566 -0.004,0.17993 0.35131,0.19185 5.72071,0.19185 h 5.72515 z m 18.49907,14.57099 c -1.12935,-0.24786 -2.58516,-0.84168 -3.43303,-1.40031 -1.07249,-0.70662 -2.06043,-1.75847 -2.66331,-2.83555 -0.96291,-1.72037 -0.95092,-1.57996 -0.95092,-11.12529 V 9.2323876 h 2.79417 2.79415 l 0.0366,7.8107404 0.0366,7.81075 0.33516,0.68532 c 0.61258,1.25259 1.62009,2.13471 2.9341,2.56894 0.94216,0.31134 2.50041,0.38204 3.50883,0.15919 0.9253,-0.20449 1.95012,-0.73515 2.54142,-1.31598 0.22755,-0.22351 0.5635,-0.66107 0.74656,-0.97235 0.63666,-1.08258 0.67524,-1.62064 0.68005,-9.48399 l 0.004,-7.2626204 h 2.79896 2.79897 v 11.8942504 11.89426 h -2.79897 -2.79896 v -1.28466 -1.28465 l -0.73155,0.61667 c -0.9902,0.83471 -2.08484,1.4166 -3.35847,1.78531 -0.89956,0.26041 -1.3164,0.31349 -2.71655,0.34588 -1.29116,0.0299 -1.85228,-0.005 -2.55828,-0.16021 z m 28.32145,0.0376 c -0.52481,-0.0774 -1.31908,-0.22331 -1.76506,-0.32414 -2.3683,-0.53544 -5.07692,-1.81461 -6.94989,-3.28215 l -0.63613,-0.49843 1.94355,-1.65933 1.94354,-1.65933 0.53883,0.42796 c 0.69657,0.55324 1.85672,1.22917 2.85148,1.66134 1.53939,0.66878 3.65131,1.01367 5.7689,0.94211 1.98261,-0.067 3.51025,-0.59314 4.33856,-1.4943 0.37729,-0.41046 0.42953,-0.55063 0.4714,-1.26496 0.0282,-0.48137 -0.0158,-0.93424 -0.1099,-1.1299 -0.23209,-0.48278 -0.92877,-0.95547 -1.68471,-1.14303 -0.36705,-0.0911 -2.21315,-0.28812 -4.10245,-0.43789 -1.8893,-0.14977 -3.7786,-0.35008 -4.19844,-0.44515 -0.41985,-0.0951 -1.23497,-0.36908 -1.81138,-0.60893 -1.2365,-0.51451 -2.43502,-1.42907 -3.07735,-2.34824 -0.23971,-0.34302 -0.56891,-1.01954 -0.73155,-1.50338 -0.57638,-1.7147 -0.3267,-3.93468 0.61786,-5.49353 0.24956,-0.41188 0.77706,-0.98908 1.34346,-1.47006 0.71932,-0.61084 1.20064,-0.90487 2.10492,-1.28586 0.64479,-0.2716704 1.63037,-0.5944404 2.19016,-0.7172704 3.75297,-0.82347 8.7131,-0.27236 12.00429,1.3337704 0.96356,0.47022 2.43581,1.41693 2.43581,1.56631 0,0.10837 -2.39333,2.58624 -3.11438,3.22439 l -0.29368,0.25993 -0.55422,-0.3277 c -0.78887,-0.46644 -2.31495,-1.11172 -3.34189,-1.41305 -0.48359,-0.1419 -1.48968,-0.31649 -2.23575,-0.38797 -1.03456,-0.0991 -1.6037,-0.0998 -2.39826,-0.003 -0.57297,0.0698 -1.3269,0.23263 -1.67537,0.3618 -0.34847,0.12917 -0.83063,0.42279 -1.07147,0.65249 -0.67676,0.64546 -0.90493,1.68106 -0.53739,2.43903 0.24691,0.50918 0.99197,1.02702 1.76652,1.2278 0.38697,0.10031 2.06629,0.2654 3.97759,0.39103 2.04458,0.13439 3.69656,0.29994 4.32567,0.43348 1.51059,0.32067 2.75373,0.89002 3.67225,1.68186 0.42935,0.37014 0.96265,0.96932 1.18512,1.33151 0.90142,1.46761 1.25313,3.49058 0.88158,5.07058 -0.35739,1.51979 -0.90924,2.39202 -2.16877,3.42781 -0.84675,0.69634 -1.36333,1.00498 -2.46943,1.47543 -1.87282,0.79655 -3.98987,1.15703 -6.69868,1.14061 -0.97963,-0.006 -2.21054,-0.0742 -2.73534,-0.15162 z M 28.606468,32.949878 c -0.04798,-0.0413 -0.08723,-5.39564 -0.08723,-11.89844 V 9.2281676 l 2.830768,0.0295 2.830769,0.0295 v 1.1786004 c 0,0.64823 0.02166,1.17854 0.04814,1.17847 0.02648,-8e-5 0.440194,-0.31882 0.919367,-0.70831 0.603876,-0.49085 1.194241,-0.84024 1.923854,-1.1385604 1.182071,-0.48333 1.862922,-0.64509 3.316389,-0.78793 1.949898,-0.19162 4.187457,0.27868 5.919714,1.2442504 l 0.927518,0.517 -0.250058,0.29967 c -0.137533,0.16482 -0.842095,0.89254 -1.565695,1.61714 -0.723602,0.7246 -1.521774,1.53282 -1.773719,1.79603 l -0.458081,0.47856 -0.877787,-0.44671 c -0.482783,-0.24569 -1.150991,-0.50506 -1.484904,-0.57637 -0.847624,-0.18103 -2.540747,-0.0767 -3.400489,0.20959 -0.794629,0.26458 -1.715036,0.87163 -2.202144,1.45241 -0.181804,0.21677 -0.462026,0.66075 -0.622717,0.98663 -0.292165,0.5925 -0.292165,0.5925 -0.355777,8.48546 l -0.06361,7.89296 -2.743536,0.0295 c -1.508945,0.0162 -2.782791,-0.004 -2.830769,-0.0457 z M 76.101591,21.126618 V 9.2323676 h 2.79896 2.79896 l 0.006,1.2880804 0.006,1.28809 0.33809,-0.36711 c 0.76239,-0.82783 2.54618,-1.7803604 4.01886,-2.1460504 2.46861,-0.61298 5.69049,-0.33531 7.70407,0.66398 0.71796,0.3563004 1.53953,0.9047104 2.32126,1.5494704 l 0.59023,0.48682 0.61593,-0.52321 c 0.33876,-0.28776 1.00863,-0.7421 1.4886,-1.00964 1.531009,-0.8533804 3.026799,-1.2732804 5.159559,-1.4483704 2.98171,-0.2448 5.65641,0.48099 7.69827,2.0889704 1.32516,1.04357 2.41142,2.7798 2.77307,4.43237 0.12979,0.59316 0.16792,2.6589 0.16792,9.09884 v 8.33146 h -2.79896 -2.79896 l -0.065,-7.72853 c -0.0728,-8.65596 -0.0277,-8.23549 -1.01848,-9.51387 -0.98454,-1.27038 -2.40194,-1.88354 -4.35946,-1.88589 -1.67526,-0.002 -3.1213,0.5531 -4.087519,1.56912 -0.62605,0.65831 -1.06336,1.53511 -1.21419,2.43439 -0.0755,0.45024 -0.12917,3.72394 -0.13066,7.97178 l -0.003,7.20781 h -2.79895 -2.79898 v -7.46023 c 0,-8.30837 -0.008,-8.40115 -0.83968,-9.60355 -0.24366,-0.35232 -0.65536,-0.80602 -0.91489,-1.00823 -0.25952,-0.2022 -0.83591,-0.51768 -1.28083,-0.70105 -0.66749,-0.27509 -1.0155,-0.34271 -1.98992,-0.38662 -0.96382,-0.0434 -1.3414,-0.0107 -2.05361,0.17787 -1.5555,0.41192 -2.80181,1.4668 -3.37345,2.8553 -0.29818,0.72427 -0.29818,0.72427 -0.3356,8.42539 l -0.0374,7.70112 h -2.79335 -2.79335 z m 78.879839,11.82334 c -1.32808,-0.18315 -2.80107,-0.76711 -3.62593,-1.43748 -0.6684,-0.54322 -1.24644,-1.33875 -1.61222,-2.21883 -0.29616,-0.71256 -0.29616,-0.71256 -0.33276,-8.52331 l -0.0366,-7.81074 h -1.39467 -1.39469 v -1.86362 -1.8636104 h 1.39949 1.39948 v -3.61761 -3.61761 h 2.79896 2.79896 v 3.61761 3.61761 h 2.03561 2.03561 v 1.8636104 1.86362 h -2.03561 -2.03561 l 0.007,7.09819 c 0.005,5.20381 0.0477,7.19784 0.15903,7.4716 0.0835,0.20538 0.31314,0.4767 0.51026,0.60293 0.30069,0.19256 0.59774,0.23835 1.84477,0.28433 l 1.48636,0.0548 v 2.2473 2.24731 l -1.84477,0.0139 c -1.01462,0.008 -1.98789,-0.006 -2.16278,-0.03 z m 9.16024,-16.592 V -0.30496246 h 2.79896 2.79896 l 0.001,6.05675006 0.001,6.0567504 0.3252,-0.35554 c 0.17887,-0.19555 0.65056,-0.57107 1.0482,-0.8345 1.6589,-1.0989604 3.51714,-1.6253804 5.74841,-1.6284804 1.95764,-0.003 3.41971,0.36686 5.09934,1.2890204 1.5321,0.84117 2.93124,2.32102 3.56187,3.76736 0.60924,1.39728 0.62625,1.68524 0.62625,10.59785 v 8.37663 h -2.79896 -2.79896 l -0.002,-7.37225 c -0.002,-7.82057 -0.023,-8.13214 -0.61855,-9.31906 -0.31337,-0.62458 -1.2408,-1.50746 -1.96905,-1.87448 -1.32954,-0.67004 -3.19316,-0.80907 -4.70065,-0.35066 -1.76232,0.53589 -2.77597,1.52343 -3.26913,3.18491 -0.24234,0.81644 -0.25458,1.21529 -0.25458,8.29461 v 7.43693 h -2.79896 -2.79896 z"
    style="fill:#fbfbfb"
    id="path2"
  />
</svg>
